<?xml version="1.0" encoding="UTF-8"?>
<svg version="1.1" xmlns="http://www.w3.org/2000/svg" width="256" height="256">
<path d="M0 0 C4.30077027 3.35922872 8.16566911 7.12566864 12 11 C12.60714844 11.58523437 13.21429688 12.17046875 13.83984375 12.7734375 C25.23191365 24.67920817 28.47692525 41.04771049 28.35180664 56.87060547 C27.93353603 73.87062813 21.74835701 87.65866598 10 100 C-1.12472415 110.59020287 -14.46244779 118 -30 118 C-30 132.19 -30 146.38 -30 161 C-22.19151163 160.92089359 -22.19151163 160.92089359 -14.38330078 160.81982422 C-13.41376465 160.8148291 -12.44422852 160.80983398 -11.4453125 160.8046875 C-10.45031738 160.79421387 -9.45532227 160.78374023 -8.43017578 160.77294922 C-6 161 -6 161 -4 163 C-3.4375 165.625 -3.4375 165.625 -4 169 C-8.95585163 175.91488704 -15.61071132 181.8935654 -21.5625 187.9375 C-22.02358154 188.41743408 -22.48466309 188.89736816 -22.9597168 189.3918457 C-24.31624164 190.80317482 -25.69113484 192.19677588 -27.06640625 193.58984375 C-27.87021729 194.41347412 -28.67402832 195.23710449 -29.50219727 196.08569336 C-32.45787719 198.35091536 -34.28815323 198.93425969 -38 199 C-39.95141602 197.9465332 -39.95141602 197.9465332 -41.69140625 196.23828125 C-42.3683252 195.58939941 -43.04524414 194.94051758 -43.74267578 194.27197266 C-44.48759277 193.52222168 -45.23250977 192.7724707 -46 192 C-46.8544873 191.16903809 -47.70897461 190.33807617 -48.58935547 189.48193359 C-51.39488407 186.73915958 -54.16894782 183.96756384 -56.9375 181.1875 C-57.90412902 180.22444087 -58.8709249 179.26154919 -59.83789062 178.29882812 C-60.74603516 177.38939453 -61.65417969 176.47996094 -62.58984375 175.54296875 C-63.41347412 174.71821045 -64.23710449 173.89345215 -65.08569336 173.04370117 C-67.50703921 170.45868828 -67.96475499 169.56392022 -68.1875 166 C-68 163 -68 163 -66 161 C-63.56982422 160.77294922 -63.56982422 160.77294922 -60.5546875 160.8046875 C-59.58515137 160.80968262 -58.61561523 160.81467773 -57.61669922 160.81982422 C-56.38193848 160.83803223 -55.14717773 160.85624023 -53.875 160.875 C-47.996875 160.936875 -47.996875 160.936875 -42 161 C-42 146.81 -42 132.62 -42 118 C-44.31 118 -46.62 118 -49 118 C-66.04747056 113.96146167 -80.79943433 104.29892263 -90.47265625 89.52734375 C-99.83163043 74.04075477 -103.1049635 56.31889029 -99.12109375 38.4453125 C-94.18123707 20.05842789 -82.62453012 6.05148617 -66.3125 -3.37890625 C-45.60435144 -13.51320065 -19.46085278 -12.81568354 0 0 Z M-54 23 C-55.91535842 25.87303763 -56.29291996 26.7583528 -56.6328125 29.9921875 C-56.71692383 30.77408447 -56.80103516 31.55598145 -56.88769531 32.36157227 C-56.96600586 33.19100342 -57.04431641 34.02043457 -57.125 34.875 C-57.2084668 35.7218335 -57.29193359 36.56866699 -57.37792969 37.44116211 C-58.38304622 47.71697386 -58.38304622 47.71697386 -58 58 C-56.19510474 60.15940735 -56.19510474 60.15940735 -53.8125 60.5 C-50.07150557 59.83493432 -48.34532441 57.99111363 -45.6484375 55.41015625 C-42.26863972 52.51890744 -38.50155085 52.71466135 -34.28125 52.796875 C-30.80994712 53.10596361 -28.8016697 53.9150365 -26 56 C-23.15420604 59.75127385 -21.62676349 63.38216535 -22 68.125 C-22.75979068 72.06350679 -24.47138812 74.87642062 -27 78 C-31.68463015 81.12308677 -36.51702766 80.57371499 -42 80 C-47.47220135 77.55705297 -49.41613604 74.16772792 -52 69 C-53.98 69 -55.96 69 -58 69 C-59.03275817 73.21709586 -59.18122805 75.52221695 -57.625 79.625 C-54.84783886 83.96675896 -50.54805579 85.87523262 -46 88 C-45.34 88.33 -44.68 88.66 -44 89 C-34.68484253 89.63568004 -26.53158795 89.92737623 -19.1875 83.5625 C-18.465625 82.716875 -17.74375 81.87125 -17 81 C-16.443125 80.360625 -15.88625 79.72125 -15.3125 79.0625 C-11.75020115 73.46460181 -11.09725052 67.47128837 -12 61 C-14.07418585 54.3529579 -17.01045512 50.18689127 -23.1328125 46.83984375 C-29.55102722 43.95298985 -37.08444319 43.89409914 -43.625 46.375 C-46.04991148 47.92705245 -46.04991148 47.92705245 -48 50 C-48 43.07 -48 36.14 -48 29 C-45.77378906 29.01160156 -43.54757813 29.02320313 -41.25390625 29.03515625 C-39.10603986 29.04294722 -36.95817503 29.04902375 -34.81030273 29.05493164 C-33.31355082 29.05997121 -31.81680384 29.06680287 -30.32006836 29.07543945 C-28.17300193 29.08752159 -26.02600038 29.09323191 -23.87890625 29.09765625 C-22.5854126 29.10289307 -21.29191895 29.10812988 -19.95922852 29.11352539 C-17.11347596 29.33996932 -17.11347596 29.33996932 -16 28 C-15.95919217 26.00041636 -15.95745644 23.99954746 -16 22 C-20.95279402 20.34906866 -26.10041111 20.81406654 -31.28686523 20.81469727 C-33.29480068 20.8125192 -35.30269674 20.79402724 -37.31054688 20.77539062 C-38.58607422 20.77345703 -39.86160156 20.77152344 -41.17578125 20.76953125 C-42.34020752 20.76542236 -43.50463379 20.76131348 -44.7043457 20.75708008 C-48.16118526 21.01188083 -50.82348502 21.61909396 -54 23 Z " fill="#C5A05B" transform="translate(164,15)"/>
<path d="M0 0 C0.69891357 -0.00287018 1.39782715 -0.00574036 2.11791992 -0.00869751 C3.59392101 -0.01073675 5.06994921 -0.00521653 6.54589844 0.00732422 C8.80465138 0.0233817 11.06161518 0.0074728 13.3203125 -0.01171875 C14.75521228 -0.00973629 16.19011095 -0.00589256 17.625 0 C18.93082031 0.00338379 20.23664062 0.00676758 21.58203125 0.01025391 C24.8125 0.3984375 24.8125 0.3984375 26.49116611 1.68759632 C28.79020912 4.66435903 28.21508455 8.35396486 28.18139648 11.96557617 C28.18516296 12.84073883 28.18892944 13.71590149 28.19281006 14.61758423 C28.19924955 16.5196901 28.19890593 18.42182815 28.19262505 20.32393456 C28.18352727 23.33843364 28.19372534 26.35230898 28.20924377 29.36677551 C28.24936998 37.93794753 28.2505512 46.50907197 28.24829102 55.08032227 C28.2482398 60.32291432 28.26746773 65.56517212 28.29762459 70.8076725 C28.30842534 73.77021227 28.29633074 76.73210699 28.28379822 79.69462585 C28.29270783 81.52453235 28.30278401 83.35443365 28.31420898 85.18432617 C28.30446548 86.00176804 28.29472198 86.8192099 28.28468323 87.66142273 C28.35480973 93.31667143 29.62770552 97.6763458 32.8125 102.3984375 C37.74442129 106.42184697 43.56040722 106.52184699 49.71920776 106.53215027 C51.45596771 106.53854774 51.45596771 106.53854774 53.22781372 106.54507446 C54.48407562 106.54462128 55.74033752 106.54416809 57.03466797 106.54370117 C58.3821624 106.54669608 59.72965598 106.55009937 61.07714844 106.55387878 C64.72597886 106.5626888 68.37478582 106.56505562 72.02362585 106.56569457 C74.30621044 106.56640673 76.58878911 106.56854417 78.87137222 106.57119179 C86.84280016 106.58043498 94.81421141 106.58452792 102.78564453 106.58374023 C110.20307111 106.58313957 117.62042493 106.59369172 125.03783309 106.6094839 C131.41764761 106.62258044 137.7974384 106.62792325 144.17726624 106.62728482 C147.98254147 106.62703048 151.78775199 106.62984666 155.59301376 106.64046288 C159.1733829 106.65017964 162.75362592 106.65019866 166.33399963 106.64294624 C168.26471572 106.64141058 170.19543189 106.64972192 172.12612915 106.65838623 C183.1053378 106.78081242 183.1053378 106.78081242 192.6875 102.0859375 C196.92245973 96.72995902 197.10400557 92.09938578 197.08374023 85.52490234 C197.08896698 84.64141617 197.09419373 83.75792999 197.09957886 82.84767151 C197.10979942 80.9346837 197.11559587 79.02166823 197.11746025 77.10865402 C197.12112588 74.08285283 197.13785597 71.05737879 197.15821838 68.03164673 C197.21362649 59.43099025 197.24437981 50.83028662 197.26879883 42.22949219 C197.28464538 36.9651892 197.31482783 31.70112091 197.35356331 26.43693924 C197.36523303 24.42986155 197.37114383 22.42274196 197.37124443 20.41563034 C197.37143581 17.6145641 197.389651 14.81414904 197.41186523 12.01318359 C197.40728806 11.18090744 197.40271088 10.34863129 197.397995 9.49113464 C197.46945657 3.84264923 197.46945657 3.84264923 199.13467503 1.68633461 C201.88617615 -0.42571546 204.60003961 0.00881036 208 0 C208.69891357 -0.00287018 209.39782715 -0.00574036 210.11791992 -0.00869751 C211.59392101 -0.01073675 213.06994921 -0.00521653 214.54589844 0.00732422 C216.80465138 0.0233817 219.06161518 0.0074728 221.3203125 -0.01171875 C222.75521228 -0.00973629 224.19011095 -0.00589256 225.625 0 C226.93082031 0.00338379 228.23664063 0.00676758 229.58203125 0.01025391 C232.8125 0.3984375 232.8125 0.3984375 234.73828125 1.76708984 C236.28649725 4.11826695 236.22554952 5.64477406 235.8125 8.3984375 C234.63549805 10.03637695 234.63549805 10.03637695 232.8125 11.3984375 C230.26879883 11.73901367 230.26879883 11.73901367 227.26953125 11.69140625 C225.65981445 11.6769043 225.65981445 11.6769043 224.01757812 11.66210938 C222.33825195 11.6244043 222.33825195 11.6244043 220.625 11.5859375 C219.49384766 11.57240234 218.36269531 11.55886719 217.19726562 11.54492188 C214.40186683 11.50953708 211.60742108 11.46016698 208.8125 11.3984375 C208.82360306 12.46617401 208.83470612 13.53391052 208.84614563 14.63400269 C208.9477695 24.72606777 209.02258401 34.81802822 209.07156086 44.91049004 C209.09758752 50.09842226 209.13285846 55.28593942 209.18969727 60.47363281 C209.24426483 65.48573985 209.2739726 70.49744917 209.28688622 75.50983047 C209.29608182 77.4163145 209.31403845 79.32277823 209.34115028 81.22909164 C209.62622859 102.11591018 209.62622859 102.11591018 201.85151672 110.51754761 C193.48444514 118.73491783 184.42670616 118.8418335 173.27758789 118.80249023 C171.81319154 118.80820022 170.34879964 118.8151669 168.88441467 118.82328796 C164.92566798 118.84116501 160.9671436 118.84006137 157.00836873 118.83434558 C153.695857 118.83124587 150.38338749 118.83735484 147.07088178 118.84338433 C139.25270352 118.85740996 131.43463457 118.85588458 123.61645508 118.84448242 C115.56725394 118.83300231 107.51838604 118.84707941 99.4692288 118.8738789 C92.54242111 118.89607283 85.61571775 118.902665 78.68887705 118.89680248 C74.55881575 118.89344061 70.42896803 118.89579652 66.29893684 118.91305351 C62.41390051 118.92857979 58.52935592 118.92450482 54.64433861 118.90574837 C53.22422501 118.90207815 51.80407451 118.90512498 50.38399506 118.91563416 C40.38950487 118.98391206 32.25991314 117.94062662 24.5 111.2109375 C23.88511719 110.70175781 23.27023438 110.19257813 22.63671875 109.66796875 C17.72067159 103.55185869 16.21684441 97.07935195 16.35839844 89.39038086 C16.35781433 88.54050598 16.35723022 87.6906311 16.35662842 86.81500244 C16.35938879 84.03899578 16.39038217 81.26409753 16.421875 78.48828125 C16.4293447 76.55058885 16.43503419 74.61288884 16.43902588 72.67518616 C16.45422478 67.60009536 16.49345659 62.52546979 16.5378418 57.45056152 C16.57891897 52.26202689 16.59706338 47.07341635 16.6171875 41.88476562 C16.65995681 31.72245298 16.7281379 21.56048408 16.8125 11.3984375 C15.7455188 11.42200317 15.7455188 11.42200317 14.65698242 11.44604492 C11.43806896 11.50835665 8.21928232 11.54741617 5 11.5859375 C3.32067383 11.62364258 3.32067383 11.62364258 1.60742188 11.66210938 C0.53427734 11.67177734 -0.53886719 11.68144531 -1.64453125 11.69140625 C-3.1291687 11.71497192 -3.1291687 11.71497192 -4.64379883 11.73901367 C-7.1875 11.3984375 -7.1875 11.3984375 -9.01049805 10.03637695 C-10.69127432 7.69737509 -10.60930283 6.21045635 -10.1875 3.3984375 C-7.61789597 -0.50385662 -4.36582987 0.01131323 0 0 Z " fill="#C5A15B" transform="translate(15.1875,116.6015625)"/>
</svg>
