<?xml version="1.0" encoding="UTF-8"?>
<svg version="1.1" xmlns="http://www.w3.org/2000/svg" width="256" height="256">
<path d="M0 0 C1.09328865 -0.01730415 1.09328865 -0.01730415 2.20866394 -0.03495789 C4.62130886 -0.06928027 7.03369766 -0.08777246 9.4465332 -0.10327148 C10.68514068 -0.11362584 10.68514068 -0.11362584 11.94877052 -0.12418938 C16.32164325 -0.16003537 20.69438684 -0.18356653 25.06738281 -0.19726562 C29.57252106 -0.21378727 34.07608223 -0.27216775 38.58069134 -0.34040928 C42.05442341 -0.38531602 45.52778215 -0.39876916 49.00177956 -0.40388298 C50.661545 -0.411753 52.32129981 -0.43132663 53.98077965 -0.46310616 C68.57491569 -0.72407572 68.57491569 -0.72407572 73.76611328 3.69775391 C77.34188271 7.55857461 79.06167029 10.31505752 79.03686523 15.63574219 C79.03663864 17.25708321 79.03663864 17.25708321 79.03640747 18.91117859 C79.0260849 20.07687881 79.01576233 21.24257904 79.00512695 22.44360352 C79.00229706 23.6379451 78.99946716 24.83228668 78.99655151 26.06282043 C78.98534122 29.88385974 78.96023482 33.7046661 78.93481445 37.52563477 C78.92478576 40.11352201 78.91565972 42.70141292 78.9074707 45.28930664 C78.8853991 51.63899572 78.85191306 57.9885486 78.80981445 64.33813477 C79.66901489 64.32259048 80.52821533 64.3070462 81.41345215 64.29103088 C89.53409779 64.15042656 97.65433124 64.0440236 105.77591705 63.97544956 C109.95083287 63.93900806 114.12473805 63.88962922 118.29907227 63.81005859 C122.33216694 63.73366659 126.36429339 63.69207623 130.39805603 63.67399406 C131.93227879 63.66111865 133.46645203 63.63597457 135.0002594 63.59802437 C148.51004678 63.27723357 148.51004678 63.27723357 153.69067383 67.69335938 C158.19944827 72.47418367 159.10780019 76.0270135 159.1003418 82.47802734 C159.10705902 83.30763474 159.11377625 84.13724213 159.12069702 84.99198914 C159.13971914 87.73894211 159.14360355 90.48565124 159.14575195 93.23266602 C159.15217776 95.14214682 159.15890596 97.05162663 159.16592407 98.96110535 C159.17790795 102.96676923 159.18160384 106.9723468 159.18041992 110.97802734 C159.18021686 116.10616707 159.20750132 121.23375185 159.24196434 126.36176014 C159.26422544 130.3072106 159.26825768 134.25252745 159.26720047 138.19803429 C159.2695583 140.08824257 159.27839205 141.97845443 159.2938652 143.86860085 C159.31350602 146.51614578 159.30769456 149.16249355 159.2956543 151.81005859 C159.30689331 152.58793732 159.31813232 153.36581604 159.32971191 154.16726685 C159.26954295 159.38538986 158.09279191 162.31258411 154.80981445 166.33813477 C149.27361103 171.33422079 144.89424942 171.48559955 137.68180847 171.47857666 C136.73609444 171.48154778 135.79038042 171.4845189 134.81600839 171.48758006 C131.63318944 171.49628201 128.45040804 171.49777657 125.26757812 171.49926758 C122.99118468 171.50389467 120.71479202 171.50891919 118.43840027 171.51431274 C112.24415802 171.52744876 106.04992661 171.53388399 99.8556726 171.5383234 C95.98797633 171.54125205 92.12028304 171.54535645 88.25258827 171.54982758 C77.54411373 171.56193766 66.83564283 171.57231943 56.12716198 171.57570267 C55.4417909 171.57592223 54.75641983 171.5761418 54.05027993 171.57636802 C53.36326906 171.5765863 52.67625818 171.57680457 51.96842879 171.57702947 C50.57628326 171.57747293 49.18413772 171.5779195 47.79199219 171.57836914 C46.7561638 171.57870129 46.7561638 171.57870129 45.69940958 171.57904014 C34.51006631 171.58298813 23.32078816 171.60044226 12.13147005 171.62372866 C0.64363463 171.64744335 -10.84415882 171.65964659 -22.33201998 171.66107059 C-28.78206713 171.66211998 -35.23202244 171.66805651 -41.68204689 171.6858902 C-47.74850847 171.70233677 -53.81480882 171.70454294 -59.88128471 171.69575119 C-62.10893815 171.694979 -64.33660013 171.69934738 -66.56423187 171.70920944 C-69.60342409 171.72187623 -72.64204075 171.7160806 -75.68122864 171.70562744 C-76.56440523 171.71368385 -77.44758183 171.72174025 -78.35752136 171.73004079 C-84.90114858 171.67734076 -89.0077509 170.27807668 -94.00268555 165.83813477 C-96.88203366 162.5474512 -97.31418241 160.17722941 -97.33735657 155.95561218 C-97.34451187 155.05984467 -97.35166718 154.16407715 -97.35903931 153.24116516 C-97.36172821 152.26084824 -97.36441711 151.28053131 -97.3671875 150.27050781 C-97.3737587 149.23607544 -97.3803299 148.20164307 -97.38710022 147.13586426 C-97.40683686 143.7071933 -97.41849597 140.27856613 -97.4284668 136.84985352 C-97.43254232 135.67960947 -97.43661785 134.50936543 -97.44081688 133.30365944 C-97.46167802 127.11113282 -97.47598023 120.91862838 -97.48535156 114.72607422 C-97.49642299 108.32678933 -97.53083163 101.92785149 -97.57052326 95.52868938 C-97.59665217 90.61047208 -97.60504005 85.692338 -97.60863304 80.77405739 C-97.6135077 78.41494207 -97.62514657 76.05583069 -97.64367104 73.69678307 C-97.66798497 70.39555611 -97.66711135 67.09523415 -97.66015625 63.79394531 C-97.67296631 62.81970108 -97.68577637 61.84545685 -97.69897461 60.84169006 C-97.65540017 55.16740724 -97.05886771 51.79553833 -93.19018555 47.33813477 C-87.87109472 43.32167843 -84.28848852 42.21224677 -77.69921875 42.22460938 C-77.04529144 42.22446335 -76.39136414 42.22431732 -75.71762085 42.22416687 C-73.55870229 42.22486288 -71.39987027 42.23264068 -69.2409668 42.24047852 C-67.74309842 42.2423438 -66.24522943 42.24376718 -64.74736023 42.24476624 C-60.80673536 42.2485827 -56.8661474 42.25840556 -52.92553711 42.26947021 C-48.90373229 42.27970304 -44.88192151 42.28426787 -40.86010742 42.28930664 C-32.97011653 42.30002861 -25.08015563 42.31709459 -17.19018555 42.33813477 C-17.22684326 41.4106543 -17.26350098 40.48317383 -17.30126953 39.52758789 C-17.42128909 36.05331473 -17.50865327 32.58127298 -17.57470703 29.10571289 C-17.60969972 27.60796139 -17.65731381 26.11044536 -17.71826172 24.61352539 C-18.27486135 10.58160182 -18.27486135 10.58160182 -13.8503418 5.43188477 C-9.29188793 1.17580493 -6.26100051 0.07911887 0 0 Z " fill="#FEFEFE" transform="translate(97.190185546875,47.661865234375)"/>
<path d="M0 0 C1.09328865 -0.01730415 1.09328865 -0.01730415 2.20866394 -0.03495789 C4.62130886 -0.06928027 7.03369766 -0.08777246 9.4465332 -0.10327148 C10.68514068 -0.11362584 10.68514068 -0.11362584 11.94877052 -0.12418938 C16.32164325 -0.16003537 20.69438684 -0.18356653 25.06738281 -0.19726562 C29.57252106 -0.21378727 34.07608223 -0.27216775 38.58069134 -0.34040928 C42.05442341 -0.38531602 45.52778215 -0.39876916 49.00177956 -0.40388298 C50.661545 -0.411753 52.32129981 -0.43132663 53.98077965 -0.46310616 C68.57491569 -0.72407572 68.57491569 -0.72407572 73.76611328 3.69775391 C77.34188271 7.55857461 79.06167029 10.31505752 79.03686523 15.63574219 C79.03663864 17.25708321 79.03663864 17.25708321 79.03640747 18.91117859 C79.0260849 20.07687881 79.01576233 21.24257904 79.00512695 22.44360352 C79.00229706 23.6379451 78.99946716 24.83228668 78.99655151 26.06282043 C78.98534122 29.88385974 78.96023482 33.7046661 78.93481445 37.52563477 C78.92478576 40.11352201 78.91565972 42.70141292 78.9074707 45.28930664 C78.8853991 51.63899572 78.85191306 57.9885486 78.80981445 64.33813477 C79.66901489 64.32259048 80.52821533 64.3070462 81.41345215 64.29103088 C89.53409779 64.15042656 97.65433124 64.0440236 105.77591705 63.97544956 C109.95083287 63.93900806 114.12473805 63.88962922 118.29907227 63.81005859 C122.33216694 63.73366659 126.36429339 63.69207623 130.39805603 63.67399406 C131.93227879 63.66111865 133.46645203 63.63597457 135.0002594 63.59802437 C148.51004678 63.27723357 148.51004678 63.27723357 153.69067383 67.69335938 C158.19944827 72.47418367 159.10780019 76.0270135 159.1003418 82.47802734 C159.10705902 83.30763474 159.11377625 84.13724213 159.12069702 84.99198914 C159.13971914 87.73894211 159.14360355 90.48565124 159.14575195 93.23266602 C159.15217776 95.14214682 159.15890596 97.05162663 159.16592407 98.96110535 C159.17790795 102.96676923 159.18160384 106.9723468 159.18041992 110.97802734 C159.18021686 116.10616707 159.20750132 121.23375185 159.24196434 126.36176014 C159.26422544 130.3072106 159.26825768 134.25252745 159.26720047 138.19803429 C159.2695583 140.08824257 159.27839205 141.97845443 159.2938652 143.86860085 C159.31350602 146.51614578 159.30769456 149.16249355 159.2956543 151.81005859 C159.30689331 152.58793732 159.31813232 153.36581604 159.32971191 154.16726685 C159.26954295 159.38538986 158.09279191 162.31258411 154.80981445 166.33813477 C149.27361103 171.33422079 144.89424942 171.48559955 137.68180847 171.47857666 C136.73609444 171.48154778 135.79038042 171.4845189 134.81600839 171.48758006 C131.63318944 171.49628201 128.45040804 171.49777657 125.26757812 171.49926758 C122.99118468 171.50389467 120.71479202 171.50891919 118.43840027 171.51431274 C112.24415802 171.52744876 106.04992661 171.53388399 99.8556726 171.5383234 C95.98797633 171.54125205 92.12028304 171.54535645 88.25258827 171.54982758 C77.54411373 171.56193766 66.83564283 171.57231943 56.12716198 171.57570267 C55.4417909 171.57592223 54.75641983 171.5761418 54.05027993 171.57636802 C53.36326906 171.5765863 52.67625818 171.57680457 51.96842879 171.57702947 C50.57628326 171.57747293 49.18413772 171.5779195 47.79199219 171.57836914 C46.7561638 171.57870129 46.7561638 171.57870129 45.69940958 171.57904014 C34.51006631 171.58298813 23.32078816 171.60044226 12.13147005 171.62372866 C0.64363463 171.64744335 -10.84415882 171.65964659 -22.33201998 171.66107059 C-28.78206713 171.66211998 -35.23202244 171.66805651 -41.68204689 171.6858902 C-47.74850847 171.70233677 -53.81480882 171.70454294 -59.88128471 171.69575119 C-62.10893815 171.694979 -64.33660013 171.69934738 -66.56423187 171.70920944 C-69.60342409 171.72187623 -72.64204075 171.7160806 -75.68122864 171.70562744 C-76.56440523 171.71368385 -77.44758183 171.72174025 -78.35752136 171.73004079 C-84.90114858 171.67734076 -89.0077509 170.27807668 -94.00268555 165.83813477 C-96.88203366 162.5474512 -97.31418241 160.17722941 -97.33735657 155.95561218 C-97.34451187 155.05984467 -97.35166718 154.16407715 -97.35903931 153.24116516 C-97.36172821 152.26084824 -97.36441711 151.28053131 -97.3671875 150.27050781 C-97.3737587 149.23607544 -97.3803299 148.20164307 -97.38710022 147.13586426 C-97.40683686 143.7071933 -97.41849597 140.27856613 -97.4284668 136.84985352 C-97.43254232 135.67960947 -97.43661785 134.50936543 -97.44081688 133.30365944 C-97.46167802 127.11113282 -97.47598023 120.91862838 -97.48535156 114.72607422 C-97.49642299 108.32678933 -97.53083163 101.92785149 -97.57052326 95.52868938 C-97.59665217 90.61047208 -97.60504005 85.692338 -97.60863304 80.77405739 C-97.6135077 78.41494207 -97.62514657 76.05583069 -97.64367104 73.69678307 C-97.66798497 70.39555611 -97.66711135 67.09523415 -97.66015625 63.79394531 C-97.67296631 62.81970108 -97.68577637 61.84545685 -97.69897461 60.84169006 C-97.65540017 55.16740724 -97.05886771 51.79553833 -93.19018555 47.33813477 C-87.87109472 43.32167843 -84.28848852 42.21224677 -77.69921875 42.22460938 C-77.04529144 42.22446335 -76.39136414 42.22431732 -75.71762085 42.22416687 C-73.55870229 42.22486288 -71.39987027 42.23264068 -69.2409668 42.24047852 C-67.74309842 42.2423438 -66.24522943 42.24376718 -64.74736023 42.24476624 C-60.80673536 42.2485827 -56.8661474 42.25840556 -52.92553711 42.26947021 C-48.90373229 42.27970304 -44.88192151 42.28426787 -40.86010742 42.28930664 C-32.97011653 42.30002861 -25.08015563 42.31709459 -17.19018555 42.33813477 C-17.22684326 41.4106543 -17.26350098 40.48317383 -17.30126953 39.52758789 C-17.42128909 36.05331473 -17.50865327 32.58127298 -17.57470703 29.10571289 C-17.60969972 27.60796139 -17.65731381 26.11044536 -17.71826172 24.61352539 C-18.27486135 10.58160182 -18.27486135 10.58160182 -13.8503418 5.43188477 C-9.29188793 1.17580493 -6.26100051 0.07911887 0 0 Z M-6.19018555 13.33813477 C-6.41155403 16.10749972 -6.51548168 18.78471969 -6.53393555 21.55688477 C-6.54855835 22.37056519 -6.56318115 23.18424561 -6.57824707 24.02258301 C-6.62483647 26.62771709 -6.65899224 29.23277348 -6.69018555 31.83813477 C-6.73122056 35.26550537 -6.78484728 38.69232882 -6.84643555 42.11938477 C-6.85171265 42.91211792 -6.85698975 43.70485107 -6.86242676 44.52160645 C-6.96458193 50.11253114 -6.96458193 50.11253114 -9.19018555 52.33813477 C-12.21983337 52.59642029 -12.21983337 52.59642029 -16.16259766 52.609375 C-16.87983505 52.61460175 -17.59707245 52.61982849 -18.33604431 52.62521362 C-19.89548996 52.63546546 -21.45496993 52.64123609 -23.01444817 52.64309502 C-25.48135843 52.646749 -27.94786314 52.66344818 -30.41468811 52.68385315 C-37.42888865 52.73936149 -44.44314935 52.76997253 -51.45751953 52.79443359 C-55.74581246 52.81029148 -60.03381806 52.84049216 -64.32196236 52.87919807 C-65.95781979 52.89086468 -67.59372858 52.89677857 -69.22962761 52.8968792 C-71.51618389 52.89707084 -73.80194574 52.91530613 -76.08837891 52.9375 C-77.39028671 52.94257065 -78.69219452 52.9476413 -80.03355408 52.9528656 C-83.11921107 53.0577938 -83.11921107 53.0577938 -84.86408615 54.62458801 C-87.18282235 57.62079094 -86.59572468 61.36238624 -86.5625 65.00048828 C-86.56615067 65.8852887 -86.56980133 66.77008911 -86.57356262 67.68170166 C-86.58167779 70.61034251 -86.56805103 73.5384318 -86.5534668 76.46704102 C-86.55294835 78.49820455 -86.55346544 80.52936858 -86.55497742 82.56053162 C-86.55488765 86.81842534 -86.54444881 91.07612989 -86.52636719 95.33398438 C-86.50366552 100.80091311 -86.50313808 106.26756564 -86.50988483 111.73452854 C-86.5132206 115.92858856 -86.50660237 120.12258521 -86.4967556 124.31663322 C-86.49289762 126.3329326 -86.49175785 128.34923901 -86.49334145 130.36554146 C-86.49371088 133.17889044 -86.48112662 135.99188053 -86.46484375 138.80517578 C-86.46732117 139.6441893 -86.46979858 140.48320282 -86.47235107 141.34764099 C-86.61869624 145.81518632 -86.61869624 145.81518632 -84.19018555 149.33813477 C-81.17379548 149.53622246 -78.24908071 149.60726774 -75.23144531 149.59210205 C-74.29193055 149.59522203 -73.35241579 149.59834201 -72.38443089 149.60155654 C-69.2167552 149.6095733 -66.04926912 149.60319861 -62.8815918 149.59692383 C-60.61855964 149.59963206 -58.35552837 149.60319204 -56.09249878 149.60754395 C-49.93150054 149.61669021 -43.77056901 149.61311449 -37.60956955 149.60678577 C-31.1749325 149.60173733 -24.74030133 149.606414 -18.30566406 149.60955811 C-6.80483535 149.61343477 4.69595912 149.60720271 16.19678247 149.59703943 C26.63193583 149.5881035 37.06704471 149.58965541 47.50219727 149.59887695 C59.60994077 149.6095715 71.71764934 149.61356855 83.82539845 149.60765243 C90.23841737 149.60452745 96.65140563 149.60413781 103.06442261 149.6107254 C109.0922642 149.61648434 115.12002142 149.61252868 121.14785385 149.60093689 C123.36589289 149.5982825 125.58393898 149.59906856 127.80197525 149.60346222 C130.81843887 149.60888851 133.83462829 149.60211919 136.85107422 149.59210205 C137.7388024 149.59656349 138.62653059 149.60102494 139.54115963 149.60562158 C144.15489047 149.79147606 144.15489047 149.79147606 147.80981445 147.33813477 C148.11777871 144.31586353 148.11777871 144.31586353 148.06860352 140.71704102 C148.07210815 140.03721161 148.07561279 139.3573822 148.07922363 138.6569519 C148.08804227 136.404743 148.0821915 134.15284699 148.07543945 131.90063477 C148.07678607 130.33886657 148.07872657 128.77709879 148.08123779 127.21533203 C148.08418923 123.940145 148.07989084 120.66506696 148.07055664 117.38989258 C148.05916203 113.18629786 148.06572141 108.98295851 148.07770157 104.77937317 C148.08491968 101.55381334 148.08263248 98.32831432 148.07744598 95.10275269 C148.07610935 93.55256114 148.07775769 92.00236411 148.08240509 90.45217896 C148.08746961 88.28771283 148.07976155 86.1236635 148.06860352 83.95922852 C148.06701233 82.72615967 148.06542114 81.49309082 148.06378174 80.22265625 C148.10972883 77.20980601 148.10972883 77.20980601 145.80981445 75.33813477 C143.40055211 75.15047704 141.10733048 75.08612496 138.69799805 75.11108398 C137.9661882 75.11079193 137.23437836 75.11049988 136.48039246 75.11019897 C134.05622591 75.11159475 131.63236495 75.12716737 129.20825195 75.14282227 C127.52959359 75.14655152 125.85093305 75.1493989 124.17227173 75.15139771 C119.74989838 75.15904108 115.327656 75.17869555 110.90533447 75.20080566 C106.39434582 75.22124898 101.88333605 75.23039617 97.37231445 75.24047852 C88.51809018 75.26194082 79.6639632 75.29608521 70.80981445 75.33813477 C69.09639874 71.60533243 68.55270555 68.66573759 68.52270508 64.56982422 C68.50929077 63.4354744 68.49587646 62.30112457 68.48205566 61.13240051 C68.47414001 59.31031319 68.47414001 59.31031319 68.46606445 57.45141602 C68.45144165 56.19805954 68.43681885 54.94470306 68.42175293 53.65336609 C68.36735194 48.97132583 68.33006797 44.2892657 68.29412842 39.60705566 C68.25797593 35.01335288 68.20727988 30.41995405 68.15356445 25.82641602 C68.1456488 23.99521965 68.1456488 23.99521965 68.13757324 22.12702942 C68.12415894 21.00213608 68.11074463 19.87724274 68.09692383 18.71826172 C68.08598694 17.22864677 68.08598694 17.22864677 68.0748291 15.7089386 C68.0385879 13.15079022 68.0385879 13.15079022 65.80981445 11.33813477 C62.78754322 11.03017051 62.78754322 11.03017051 59.1887207 11.0793457 C58.5088913 11.07584106 57.82906189 11.07233643 57.12863159 11.06872559 C54.87642269 11.05990695 52.62452668 11.06575771 50.37231445 11.07250977 C48.81054626 11.07116315 47.24877847 11.06922265 45.68701172 11.06671143 C42.41182469 11.06375999 39.13674665 11.06805837 35.86157227 11.07739258 C31.65797755 11.08878719 27.4546382 11.08222781 23.25105286 11.07024765 C20.02549303 11.06302954 16.799994 11.06531674 13.57443237 11.07050323 C12.02424082 11.07183987 10.4740438 11.07019153 8.92385864 11.06554413 C6.75939252 11.06047961 4.59534319 11.06818766 2.4309082 11.0793457 C1.19783936 11.08093689 -0.03522949 11.08252808 -1.30566406 11.08416748 C-4.3185143 11.03822039 -4.3185143 11.03822039 -6.19018555 13.33813477 Z " fill="#C6A25D" transform="translate(97.190185546875,47.661865234375)"/>
<path d="M0 0 C4.42126716 2.52291639 7.53595107 5.37463935 9.6640625 10.07421875 C10.17799033 14.63998338 9.90865832 18.8957116 8.9765625 23.38671875 C8.366031 26.13070868 8.366031 26.13070868 10.1015625 28.26171875 C12.57145281 32.70752131 12.30067739 37.10569567 11.6640625 42.07421875 C9.61711247 46.67985633 6.53351405 49.65886926 2.203125 52.1484375 C-3.21084533 54.12245437 -8.70744394 54.01666418 -14.3359375 53.07421875 C-18.84646137 50.91348875 -21.5829994 48.20362591 -24.3359375 44.07421875 C-24.0118006 40.75181551 -23.72817447 39.46645572 -21.3359375 37.07421875 C-18.3984375 37.26171875 -18.3984375 37.26171875 -15.3359375 38.07421875 C-14.8925 38.57824219 -14.4490625 39.08226562 -13.9921875 39.6015625 C-11.62870992 41.70305082 -9.88619674 41.47408767 -6.7734375 41.44921875 C-5.80277344 41.45695312 -4.83210938 41.4646875 -3.83203125 41.47265625 C-2.59646484 41.27542969 -2.59646484 41.27542969 -1.3359375 41.07421875 C0.96481512 38.30676791 0.96481512 38.30676791 0.4140625 35.44921875 C0.1665625 34.66546875 -0.0809375 33.88171875 -0.3359375 33.07421875 C-3.40447288 31.53995106 -6.63181671 31.68482002 -10.0234375 31.453125 C-12.3359375 31.07421875 -12.3359375 31.07421875 -14.3359375 29.07421875 C-14.7109375 26.13671875 -14.7109375 26.13671875 -14.3359375 23.07421875 C-11.98642183 20.23522065 -9.59173199 19.84669888 -6.0859375 19.38671875 C-4.2296875 19.23203125 -4.2296875 19.23203125 -2.3359375 19.07421875 C-2.29352027 16.741271 -2.29500813 14.40719308 -2.3359375 12.07421875 C-3.47152661 10.72755038 -3.47152661 10.72755038 -6.4609375 10.76171875 C-10.05844507 11.05184033 -11.13221962 11.30701646 -14.0234375 13.07421875 C-17.3359375 15.07421875 -17.3359375 15.07421875 -21.3359375 15.07421875 C-23.3359375 12.07421875 -23.3359375 12.07421875 -23.5234375 8.76171875 C-22.01742027 4.08513892 -20.15550601 2.63891189 -16.00390625 0.18359375 C-10.64584432 -2.04435587 -5.40947922 -2.1438906 0 0 Z " fill="#C7A35F" transform="translate(216.3359375,133.92578125)"/>
<path d="M0 0 C3.88446678 2.58964452 6.69907021 5.64814041 8.8125 9.875 C8.96227039 12.12155587 9.03400174 14.37363768 9.0625 16.625 C9.08828125 17.83671875 9.1140625 19.0484375 9.140625 20.296875 C8.53902768 26.85715051 5.69036934 30.4149342 0.8125 34.625 C-0.05375 35.38296875 -0.92 36.1409375 -1.8125 36.921875 C-4.1875 38.875 -4.1875 38.875 -7.1875 40.875 C-6.28386719 40.91238281 -5.38023438 40.94976562 -4.44921875 40.98828125 C-3.26972656 41.05402344 -2.09023438 41.11976563 -0.875 41.1875 C0.88263672 41.27451172 0.88263672 41.27451172 2.67578125 41.36328125 C5.8125 41.875 5.8125 41.875 7.7421875 43.22265625 C8.8125 44.875 8.8125 44.875 8.625 48 C8.356875 48.94875 8.08875 49.8975 7.8125 50.875 C5.11984639 52.2213268 3.01135751 52.00462636 0 52.0078125 C-1.15757813 52.00910156 -2.31515625 52.01039063 -3.5078125 52.01171875 C-4.72210938 52.00785156 -5.93640625 52.00398438 -7.1875 52 C-8.40179688 52.00386719 -9.61609375 52.00773437 -10.8671875 52.01171875 C-12.60355469 52.00978516 -12.60355469 52.00978516 -14.375 52.0078125 C-15.97408203 52.00612061 -15.97408203 52.00612061 -17.60546875 52.00439453 C-20.1875 51.875 -20.1875 51.875 -22.1875 50.875 C-24.74680985 43.19707045 -24.74680985 43.19707045 -23.1875 38.875 C-19.68009248 35.01083903 -15.23272418 32.14646892 -10.9934082 29.15136719 C-10.3974585 28.73016602 -9.80150879 28.30896484 -9.1875 27.875 C-8.59864014 27.46668945 -8.00978027 27.05837891 -7.40307617 26.63769531 C-4.6595457 24.58908425 -3.30498802 23.41588824 -2.56640625 20.015625 C-2.62699219 19.06171875 -2.68757813 18.1078125 -2.75 17.125 C-2.79253906 16.16078125 -2.83507812 15.1965625 -2.87890625 14.203125 C-2.94169955 11.91811342 -2.94169955 11.91811342 -4.1875 10.875 C-6.18708364 10.83419217 -8.18795254 10.83245644 -10.1875 10.875 C-10.46464844 11.44089844 -10.74179687 12.00679687 -11.02734375 12.58984375 C-11.57068359 13.69005859 -11.57068359 13.69005859 -12.125 14.8125 C-12.48464844 15.54339844 -12.84429687 16.27429688 -13.21484375 17.02734375 C-14.1875 18.875 -14.1875 18.875 -15.1875 19.875 C-17.52694736 19.58769945 -19.8614143 19.25563221 -22.1875 18.875 C-23.15093285 14.1625567 -23.73145295 10.98382718 -21.5625 6.5625 C-15.43219164 -0.37442788 -8.99498769 -3.17470154 0 0 Z " fill="#C7A25E" transform="translate(55.1875,113.125)"/>
<path d="M0 0 C2.109375 1.24609375 2.109375 1.24609375 3.109375 2.24609375 C3.19805799 5.20314696 3.22457796 8.13674431 3.20703125 11.09375 C3.2056163 11.98017685 3.20420135 12.8666037 3.20274353 13.77989197 C3.19712715 16.62282629 3.18457191 19.46568306 3.171875 22.30859375 C3.16686211 24.23111866 3.16229884 26.15364479 3.15820312 28.07617188 C3.14715241 32.79950924 3.12987683 37.52278833 3.109375 42.24609375 C3.91246094 42.52710938 4.71554688 42.808125 5.54296875 43.09765625 C8.109375 44.24609375 8.109375 44.24609375 9.171875 46.62109375 C9.109375 49.24609375 9.109375 49.24609375 7.54296875 51.37890625 C4.28773446 53.87650174 2.17575478 53.7805546 -1.890625 53.74609375 C-3.1075 53.75640625 -4.324375 53.76671875 -5.578125 53.77734375 C-9.40198339 53.16408344 -10.62303029 52.33364166 -12.890625 49.24609375 C-12.953125 46.62109375 -12.953125 46.62109375 -11.890625 44.24609375 C-10.240625 43.58609375 -8.590625 42.92609375 -6.890625 42.24609375 C-7.220625 33.00609375 -7.550625 23.76609375 -7.890625 14.24609375 C-10.200625 14.57609375 -12.510625 14.90609375 -14.890625 15.24609375 C-15.880625 14.58609375 -16.870625 13.92609375 -17.890625 13.24609375 C-17.8125 10 -17.8125 10 -16.890625 6.24609375 C-14.52377434 4.43378009 -12.78909756 3.3657561 -10.140625 2.18359375 C-9.51929687 1.86455078 -8.89796875 1.54550781 -8.2578125 1.21679688 C-5.13560542 -0.26855691 -3.38916686 -0.88393136 0 0 Z " fill="#C7A35F" transform="translate(129.890625,69.75390625)"/>
</svg>
