<svg xmlns="http://www.w3.org/2000/svg" xmlns:xlink="http://www.w3.org/1999/xlink" viewBox="0,0,256,256" width="48px" height="48px" fill-rule="nonzero"><g fill="#c6a15b" fill-rule="nonzero" stroke="none" stroke-width="1" stroke-linecap="butt" stroke-linejoin="miter" stroke-miterlimit="10" stroke-dasharray="" stroke-dashoffset="0" font-family="none" font-weight="none" font-size="none" text-anchor="none" style="mix-blend-mode: normal"><g transform="scale(5.33333,5.33333)"><path d="M24.00195,4.00391c-0.768,0 -1.53559,0.29241 -2.12109,0.87891l-21,21c-1.172,1.173 -1.172,3.06724 0,4.24023c1.125,1.133 2.92852,1.17281 4.10352,0.13281l1.15039,-1.14648c0.196,-0.187 0.51103,-0.187 0.70703,0c0.195,0.2 0.195,0.52003 0,0.70703l-1.01367,1.01172c-0.254,0.253 -0.53117,0.46763 -0.82617,0.64063v15.53516l-0.00391,-0.00195c-1.101,0 -4,0.22781 -4,0.50781c0,0.266 2.899,0.49219 4,0.49219l0.00391,-0.00195v0.00195h37.99609v-0.00195l0.00586,0.00195c1.101,0 4,-0.22619 4,-0.49219c0,-0.28 -2.899,-0.50781 -4,-0.50781l-0.00586,0.00391l-0.00195,-15.53711c-0.293,-0.173 -0.56931,-0.38762 -0.82031,-0.64062l-1.01367,-1.01367c-0.195,-0.187 -0.195,-0.50703 0,-0.70703c0.196,-0.187 0.51103,-0.187 0.70703,0l1.15039,1.14844c1.176,1.04 2.97652,0.99823 4.10352,-0.13477c1.172,-1.173 1.172,-3.06528 0,-4.23828l-8.11914,-8.12109v-7.75977l1.00195,-1v-1h-7.00195v1l1,1v1.34766l1.83789,1.83984c0.195,0.187 0.195,0.50703 0,0.70703c-0.196,0.187 -0.51103,0.187 -0.70703,0l-9.01172,-9.01367c-0.5855,-0.5865 -1.35309,-0.87891 -2.12109,-0.87891zM24,6.00586c0.256,0 0.51253,0.09752 0.70703,0.29102l21,21c0.391,0.386 0.391,1.02511 0,1.41211c-0.389,0.387 -1.02311,0.387 -1.41211,0l-19.58594,-19.58789c-0.391,-0.387 -1.02306,-0.387 -1.41406,0l-19.58789,19.58789c-0.389,0.386 -1.02311,0.386 -1.41211,0c-0.391,-0.386 -0.391,-1.02511 0,-1.41211l21,-21c0.1945,-0.1935 0.44908,-0.29102 0.70508,-0.29102zM24.00391,21.00195c3.107,0 5.91156,1.21281 7.85156,3.13281c0.196,0.2 0.19695,0.50703 0.00195,0.70703c-0.195,0.2 -0.51103,0.2 -0.70703,0c-1.748,-1.733 -4.29748,-2.83984 -7.14648,-2.83984c-2.852,0 -5.40334,1.10684 -7.15234,2.83984c-0.196,0.2 -0.51203,0.2 -0.70703,0c-0.195,-0.2 -0.19209,-0.50703 0.00391,-0.70703c1.942,-1.92 4.74647,-3.13281 7.85547,-3.13281zM18.99414,26.00195h10.00781v18h-10.00781zM20.49805,31.00195c-0.276,0 -0.5,0.22781 -0.5,0.50781v6.97266c0,0.267 0.224,0.49219 0.5,0.49219c0.275,0 0.5,-0.22519 0.5,-0.49219v-6.97266c0,-0.28 -0.225,-0.50781 -0.5,-0.50781zM17.00195,45.00195h14c0.55,0 1,0.453 1,1v1h-16v-1c0,-0.547 0.448,-1 1,-1z"></path></g></g></svg>