<?xml version="1.0" encoding="UTF-8"?>
<svg version="1.1" xmlns="http://www.w3.org/2000/svg" width="256" height="256">
<path d="M0 0 C1.52994792 1.00911458 3.05989583 2.01822917 4.58984375 3.02734375 C7.96903738 4.51697797 7.96903738 4.51697797 16 5 C16.33 35.03 16.66 65.06 17 96 C17.99 95.67 18.98 95.34 20 95 C20.33 65.3 20.66 35.6 21 5 C34.7053125 4.7525 34.7053125 4.7525 48.6875 4.5 C51.56557373 4.42716797 54.44364746 4.35433594 57.40893555 4.27929688 C59.69316625 4.25592959 61.97743026 4.23554439 64.26171875 4.21875 C65.44527954 4.17782227 66.62884033 4.13689453 67.8482666 4.09472656 C76.02048949 4.0877737 76.02048949 4.0877737 78.83105469 6.70527649 C80.14121789 8.76411499 81.09455605 10.73787484 82 13 C82.63054462 14.22652859 83.26829679 15.44938534 83.9140625 16.66796875 C84.47867188 17.82941406 85.04328125 18.99085938 85.625 20.1875 C87.60003178 24.24033671 89.61957322 28.16967691 92 32 C88.57867242 37.59679358 84.26604069 38.67686446 78.3125 40.5 C66.26777851 44.24072006 66.26777851 44.24072006 56.4375 51.8125 C54.52368312 55.74548148 54.61998915 60.01886843 54.5625 64.3125 C54.5469104 65.39011597 54.5469104 65.39011597 54.53100586 66.48950195 C54.53349972 68.78917586 54.53349972 68.78917586 55 72 C58.14423711 74.09615807 58.85989826 74.25054845 62.44067383 74.25396729 C63.34919098 74.25960693 64.25770813 74.26524658 65.1937561 74.27105713 C66.1881369 74.26700867 67.1825177 74.26296021 68.20703125 74.25878906 C69.25603607 74.2622937 70.30504089 74.26579834 71.38583374 74.26940918 C74.86145601 74.27822854 78.33687557 74.27237653 81.8125 74.265625 C84.22241251 74.26697159 86.63232475 74.26891207 89.04223633 74.27142334 C94.09621768 74.27437488 99.15012841 74.27007593 104.20410156 74.26074219 C110.69102093 74.24934771 117.17777482 74.255907 123.66468811 74.26788712 C128.64198052 74.27510485 133.61923352 74.27281817 138.5965271 74.26763153 C140.98880025 74.2662948 143.38107694 74.26794357 145.77334595 74.27259064 C149.113317 74.27765438 152.45301788 74.26994756 155.79296875 74.25878906 C156.78734955 74.26283752 157.78173035 74.26688599 158.8062439 74.27105713 C159.71476105 74.26541748 160.6232782 74.25977783 161.55932617 74.25396729 C162.34909348 74.25321323 163.13886078 74.25245918 163.95256042 74.25168228 C166.31036993 74.11739351 166.31036993 74.11739351 169 72 C169.48208974 68.6234868 169.48208974 68.6234868 169.375 64.75 C169.38273438 63.44546875 169.39046875 62.1409375 169.3984375 60.796875 C168.81251817 55.21340843 167.26372008 52.24025099 163.265625 48.31640625 C160.02415425 45.81535776 156.58328994 44.37698858 152.75 42.9375 C152.09612305 42.68492432 151.44224609 42.43234863 150.76855469 42.17211914 C147.82877903 41.03918594 144.8767333 39.95642086 141.90625 38.90625 C141.0296875 38.5865625 140.153125 38.266875 139.25 37.9375 C138.49203125 37.67839844 137.7340625 37.41929687 136.953125 37.15234375 C134.32851723 35.60382516 133.38269366 33.66474822 132 31 C132.44730469 30.32195312 132.89460937 29.64390625 133.35546875 28.9453125 C136.87403458 23.52867171 140.08769475 18.12520612 142.859375 12.2890625 C143.42398438 11.15597656 143.42398438 11.15597656 144 10 C144.40547562 9.13949539 144.81095123 8.27899078 145.22871399 7.39241028 C147 5 147 5 149.48674011 4.39872742 C150.96899834 4.415382 150.96899834 4.415382 152.48120117 4.43237305 C153.61779175 4.43297729 154.75438232 4.43358154 155.92541504 4.4342041 C157.71610413 4.47257385 157.71610413 4.47257385 159.54296875 4.51171875 C160.64080688 4.51675415 161.73864502 4.52178955 162.86975098 4.52697754 C166.97593245 4.55316402 171.08174208 4.62297099 175.1875 4.6875 C184.365625 4.790625 193.54375 4.89375 203 5 C203.33 34.7 203.66 64.4 204 95 C204.99 95.33 205.98 95.66 207 96 C206.99777939 94.96318588 206.99555878 93.92637177 206.99327087 92.85813904 C206.97297509 83.07408511 206.95799685 73.29003546 206.94818783 63.50596523 C206.94297536 58.47621723 206.93590744 53.44648625 206.92456055 48.41674805 C206.91367351 43.56030676 206.90771084 38.70388183 206.90512276 33.84742928 C206.90327899 31.99713954 206.89967859 30.14685067 206.89426994 28.29656792 C206.88698231 25.6995642 206.88601231 23.10262758 206.88647461 20.50561523 C206.88287933 19.74532013 206.87928406 18.98502502 206.87557983 18.20169067 C206.88421771 13.70003033 207.26233052 9.44243593 208 5 C208.56847656 4.97421875 209.13695312 4.9484375 209.72265625 4.921875 C210.49480469 4.86515625 211.26695312 4.8084375 212.0625 4.75 C213.19365234 4.68039063 213.19365234 4.68039063 214.34765625 4.609375 C217.91577805 3.92415784 217.91577805 3.92415784 224 0 C224.33 33.33 224.66 66.66 225 101 C229.95 101.66 234.9 102.32 240 103 C240 103.66 240 104.32 240 105 C234.25180215 106.96305167 229.15530704 107.28370629 223.10745239 107.25396729 C221.63792722 107.25864726 221.63792722 107.25864726 220.13871467 107.26342177 C216.86471294 107.27138198 213.59089756 107.26508572 210.31689453 107.25878906 C207.96596163 107.26149983 205.61502957 107.26506125 203.26409912 107.26940918 C196.88392634 107.27852617 190.50381826 107.27499146 184.12364435 107.26865101 C178.1213059 107.2640998 172.11897336 107.26757454 166.11663507 107.2705054 C153.5015464 107.276205 140.88648683 107.26965707 128.27140294 107.25890467 C117.45875274 107.24997363 106.64614551 107.25151822 95.83349609 107.26074219 C83.26566132 107.2714585 70.69785205 107.27565136 58.13001335 107.26951766 C51.48154554 107.26636075 44.83310165 107.26597699 38.18463516 107.27259064 C31.93181418 107.27837613 25.67907415 107.27434505 19.4262619 107.26280212 C17.1337561 107.26016177 14.84124346 107.26090995 12.54874039 107.26532745 C9.41457382 107.27080906 6.28066512 107.26391687 3.14651489 107.25396729 C1.79225912 107.26065945 1.79225912 107.26065945 0.41064465 107.26748681 C-5.33670873 107.23220589 -10.42636428 106.41887963 -16 105 C-16 104.34 -16 103.68 -16 103 C-8.575 102.01 -8.575 102.01 -1 101 C-1.00222061 99.74941299 -1.00444122 98.49882599 -1.00672913 97.21034241 C-1.02695845 85.45245469 -1.04197112 73.69457049 -1.05181217 61.93666935 C-1.05704153 55.89112183 -1.06414014 49.8455883 -1.07543945 43.80004883 C-1.08626645 37.97105712 -1.09227643 32.14207891 -1.09487724 26.31307793 C-1.09673183 24.0838239 -1.10035308 21.85457065 -1.10573006 19.62532234 C-1.11293799 16.51460266 -1.11399105 13.40393951 -1.11352539 10.29321289 C-1.11712067 9.36173431 -1.12071594 8.43025574 -1.12442017 7.47055054 C-1.11405216 1.11405216 -1.11405216 1.11405216 0 0 Z M32 91 C32 94.3 32 97.6 32 101 C35.3 101 38.6 101 42 101 C42 97.7 42 94.4 42 91 C38.7 91 35.4 91 32 91 Z M182 91 C182 94.3 182 97.6 182 101 C184.97 101 187.94 101 191 101 C191 97.7 191 94.4 191 91 C188.03 91 185.06 91 182 91 Z " fill="#C5A15A" transform="translate(16,149)"/>
<path d="M0 0 C1.01335183 1.99326819 2.01373626 3.99319063 3 6 C5.33239027 7.85877386 5.33239027 7.85877386 8 9.1875 C12.80026631 11.780501 12.80026631 11.780501 14.5 13.6484375 C17.09324414 15.98505852 20.27684018 15.42135804 23.625 15.49609375 C26 16 26 16 27.8125 17.66015625 C29.29452036 20.58032137 29.08412914 22.76517934 29 26 C29.97348389 25.98952637 30.94696777 25.97905273 31.94995117 25.96826172 C35.57475075 25.93195794 39.19953436 25.9090619 42.82446289 25.89013672 C44.39089667 25.88010274 45.95731183 25.86647246 47.52368164 25.84912109 C49.78015753 25.82475775 52.03638494 25.81349084 54.29296875 25.8046875 C54.98899704 25.79436493 55.68502533 25.78404236 56.40214539 25.77340698 C60.3878366 25.77249515 63.51647864 26.00309603 67 28 C70.50101618 31.66380585 71.50208801 33.93414781 71.51757812 38.98022461 C71.53018677 40.16172592 71.54279541 41.34322723 71.55578613 42.56053162 C71.54768921 43.82832962 71.53959229 45.09612762 71.53125 46.40234375 C71.5350769 47.71280167 71.53890381 49.02325958 71.54284668 50.37342834 C71.54873231 53.1432691 71.54021146 55.91259261 71.52148438 58.68237305 C71.49871641 62.22106425 71.51180816 65.75854038 71.53577423 69.29718685 C71.55376336 72.68650134 71.54114063 76.07549481 71.53125 79.46484375 C71.53934692 80.73061752 71.54744385 81.9963913 71.55578613 83.30052185 C71.43589937 94.56456309 71.43589937 94.56456309 67 99 C62.61492004 101.60943743 59.4308176 102.37021878 54.35205078 102.34057617 C53.05115509 102.34034958 51.7502594 102.34012299 50.40994263 102.33988953 C49.00506235 102.32457301 47.60018565 102.30892508 46.1953125 102.29296875 C44.74657634 102.2873677 43.29783447 102.28310001 41.84909058 102.28010559 C38.05139245 102.26869677 34.25404307 102.2392644 30.45648193 102.20599365 C26.5752026 102.17520678 22.69386646 102.16158192 18.8125 102.14648438 C11.20817501 102.1143903 3.60413653 102.06324272 -4 102 C-4.06493652 101.38439209 -4.12987305 100.76878418 -4.19677734 100.13452148 C-4.2839502 99.32571533 -4.37112305 98.51690918 -4.4609375 97.68359375 C-4.54649902 96.88236084 -4.63206055 96.08112793 -4.72021484 95.25561523 C-4.98278009 92.87378752 -4.98278009 92.87378752 -5.625 90.0625 C-5.97982024 87.16480135 -5.78432408 85.11081937 -5.375 82.25 C-4.5508995 74.93198755 -6.49325453 68.8037552 -10.625 62.75 C-16.84553839 55.12830074 -25.383849 51.19688464 -34.8125 49.1875 C-42.38878923 48.45527481 -49.37630421 50.47675756 -56 54 C-57.6808292 54.50206587 -59.36918441 54.97930872 -61.0625 55.4375 C-68.41194289 57.60492552 -71.37473994 61.11542869 -74.984375 67.68359375 C-77.80971937 74.12755224 -77.41293754 81.10943719 -76.4375 87.9375 C-76 91 -76 91 -77 93 C-77.22467831 94.53668865 -77.40796805 96.07968054 -77.5625 97.625 C-77.68818359 98.85089844 -77.68818359 98.85089844 -77.81640625 100.1015625 C-77.87699219 100.72804688 -77.93757813 101.35453125 -78 102 C-86.38857971 102.04638264 -94.77710564 102.08189928 -103.16578197 102.10362434 C-107.06116968 102.11405236 -110.95646951 102.12819357 -114.85180664 102.15087891 C-118.6124743 102.17264239 -122.37305755 102.18457601 -126.13378334 102.18975449 C-127.56707398 102.19344396 -129.00036012 102.20064859 -130.43361473 102.21146011 C-132.44422254 102.22602079 -134.45491566 102.22681731 -136.46557617 102.22705078 C-138.18099861 102.23371262 -138.18099861 102.23371262 -139.93107605 102.24050903 C-144.55295588 101.87829613 -147.13769309 100.95811879 -150.25 97.5 C-152.43997652 94.37146211 -153.13120805 92.66279973 -153.31640625 88.9140625 C-153.35846191 88.07601074 -153.40051758 87.23795898 -153.44384766 86.37451172 C-153.48300293 85.46717285 -153.5221582 84.55983398 -153.5625 83.625 C-153.6251001 82.21565186 -153.6251001 82.21565186 -153.68896484 80.77783203 C-154.08244114 71.17861652 -154.15957859 61.60475345 -154 52 C-153.99274902 51.13439453 -153.98549805 50.26878906 -153.97802734 49.37695312 C-153.94984254 46.79159486 -153.88634047 44.20941656 -153.8125 41.625 C-153.80686035 40.84624512 -153.8012207 40.06749023 -153.79541016 39.26513672 C-153.5697677 33.58168944 -152.17896746 30.90682052 -148 27 C-144.28282425 25.56940994 -140.31578481 25.87345161 -136.390625 25.90234375 C-135.66381531 25.9037587 -134.93700562 25.90517365 -134.18817139 25.90663147 C-131.87540506 25.91221208 -129.56273688 25.92476096 -127.25 25.9375 C-125.67838682 25.94251751 -124.10677211 25.94707998 -122.53515625 25.95117188 C-118.69006657 25.96217515 -114.8450499 25.97942639 -111 26 C-111.02481445 24.88455811 -111.04962891 23.76911621 -111.07519531 22.61987305 C-111 19 -111 19 -109.796875 17.08203125 C-107.49526121 15.69605946 -105.92533752 15.69996275 -103.25 15.6875 C-98.26387135 15.34687784 -96.07687284 13.94325551 -92.59375 10.4765625 C-91 9 -91 9 -87.75 7.5 C-84.75493097 6.23386214 -84.75493097 6.23386214 -83.78515625 3.16796875 C-81.51760597 -0.85606468 -78.73221447 -2.30180783 -74.6875 -4.1875 C-73.96965332 -4.52845703 -73.25180664 -4.86941406 -72.51220703 -5.22070312 C-51.28779353 -14.91204495 -19.22510125 -14.9660019 0 0 Z M-73.57421875 8.56640625 C-76.58427854 10.34529827 -79.5731527 11.19844651 -82.9140625 12.15625 C-85.20117492 13.08137413 -86.39160857 14.15598434 -88 16 C-87.360625 16.53625 -86.72125 17.0725 -86.0625 17.625 C-84 20 -84 20 -83 26 C-55.28 26 -27.56 26 1 26 C1.33 23.03 1.66 20.06 2 17 C3.32 16.34 4.64 15.68 6 15 C1.49172221 12.21829668 -2.7042282 10.34809783 -7.75390625 8.78125 C-9.93671563 8.02201195 -11.84430625 7.09632546 -13.875 6 C-31.87041344 -3.26391106 -56.34912705 -1.91502284 -73.57421875 8.56640625 Z M-140.76243591 39.35920715 C-142.2971156 41.00987995 -142.2971156 41.00987995 -141.75 43.625 C-141.22254355 45.9312407 -141.22254355 45.9312407 -140 47 C-131.61997895 47.5945893 -123.49689804 46.57205248 -115.25 45.1875 C-113.64318359 44.9390332 -113.64318359 44.9390332 -112.00390625 44.68554688 C-105.99097225 43.70557916 -100.61642031 42.3673076 -95 40 C-97.81556107 38.41428818 -99.85209154 37.746802 -103.07836914 37.7253418 C-103.86921402 37.71580978 -104.6600589 37.70627777 -105.47486877 37.69645691 C-106.31976364 37.69736832 -107.16465851 37.69827972 -108.03515625 37.69921875 C-109.34775673 37.69279106 -109.34775673 37.69279106 -110.68687439 37.68623352 C-112.53350968 37.68049911 -114.38016755 37.67998341 -116.22680664 37.68432617 C-119.0558907 37.6874926 -121.88393531 37.66399406 -124.71289062 37.63867188 C-126.50781118 37.63639948 -128.30273455 37.63569511 -130.09765625 37.63671875 C-130.94457535 37.627509 -131.79149445 37.61829926 -132.66407776 37.60881042 C-136.9985919 37.51816477 -136.9985919 37.51816477 -140.76243591 39.35920715 Z " fill="#C6A05B" transform="translate(169,48)"/>
<path d="M0 0 C6.36195453 4.43833993 11.14685189 9.31561249 13 17 C13.76305962 23.37066056 13.58515373 28.472888 10 34 C11.485 34.495 11.485 34.495 13 35 C13.51315319 41.84204256 13.79758449 46.97725749 9.6328125 52.59375 C6.9126513 56.60240861 4.95474198 61.00881143 2.85546875 65.36621094 C1.15828338 68.84275766 -0.51177809 72.00176987 -3 75 C-2.505 75.94875 -2.01 76.8975 -1.5 77.875 C0 81 0 81 0 83 C0.7940625 83.26039063 1.588125 83.52078125 2.40625 83.7890625 C6.79029263 85.26629426 11.1484615 86.80492701 15.5 88.375 C16.32886719 88.66632813 17.15773438 88.95765625 18.01171875 89.2578125 C24.38328768 91.56737962 30.30993873 93.97937372 34 100 C35 103 35 103 35 114 C-0.64 114 -36.28 114 -73 114 C-73 99.90554415 -73 99.90554415 -70 96 C-67.06640625 94.0234375 -67.06640625 94.0234375 -63.5625 92.375 C-62.94503906 92.08214111 -62.32757813 91.78928223 -61.69140625 91.48754883 C-54.92024379 88.35432522 -47.88714427 86.14656773 -40.7421875 84.0390625 C-37.8304752 83.2612073 -37.8304752 83.2612073 -36.625 80.6875 C-35.96762196 77.86077442 -35.56835145 75.87765698 -36 73 C-36.58394531 72.2884375 -37.16789062 71.576875 -37.76953125 70.84375 C-40.44407853 67.43381931 -42.19854057 63.89312529 -44.0625 60 C-44.73897515 58.60323988 -45.41732125 57.20738414 -46.09765625 55.8125 C-46.41774658 55.15080811 -46.73783691 54.48911621 -47.06762695 53.80737305 C-48.05134009 51.81854945 -48.05134009 51.81854945 -49.734375 49.39453125 C-51.35299199 46.33214787 -51.3008891 44.12696922 -51.1875 40.6875 C-51.16042969 39.61886719 -51.13335937 38.55023438 -51.10546875 37.44921875 C-51.07066406 36.64097656 -51.03585938 35.83273438 -51 35 C-49.515 34.505 -49.515 34.505 -48 34 C-48.495 33.278125 -48.99 32.55625 -49.5 31.8125 C-52.35395037 26.06363346 -51.97294856 18.62539168 -50.34375 12.5546875 C-47.79562766 6.77747909 -43.64679027 3.47338327 -37.86328125 1.13671875 C-36.35537303 0.62355627 -34.83629372 0.14224519 -33.30859375 -0.30859375 C-31.00438072 -0.96343299 -31.00438072 -0.96343299 -28.84765625 -1.84765625 C-19.11663669 -5.63096404 -9.08688315 -5.27961296 0 0 Z M-37.73046875 14.83984375 C-39.57870101 17.98468203 -40.13869668 20.65089024 -40.31640625 24.23046875 C-40.35830078 25.03291016 -40.40019531 25.83535156 -40.44335938 26.66210938 C-40.50233398 27.91217773 -40.50233398 27.91217773 -40.5625 29.1875 C-40.60568359 30.03248047 -40.64886719 30.87746094 -40.69335938 31.74804688 C-40.79931518 33.83184433 -40.9001502 35.91590103 -41 38 C-42.32 38.33 -43.64 38.66 -45 39 C-45.63714821 44.09718564 -44.3079323 46.49646659 -41.55078125 50.52734375 C-39.9953385 53.00743257 -38.74149138 55.555773 -37.49951172 58.20410156 C-33.89712693 65.85942067 -30.06281028 72.51942051 -22 76 C-18.23624825 76.49092414 -16.38761838 76.20188458 -13 74.4375 C-6.72951101 69.34272769 -2.84038986 63.41826966 0.75 56.25 C1.51434053 54.75455113 2.27991713 53.25973323 3.046875 51.765625 C3.37526367 51.11368164 3.70365234 50.46173828 4.04199219 49.79003906 C5 48 5 48 7 45 C7.16699232 41.87478167 7.16699232 41.87478167 7 39 C5.68 38.67 4.36 38.34 3 38 C2.97421875 36.87980469 2.9484375 35.75960937 2.921875 34.60546875 C2.86559365 33.13277354 2.80824632 31.6601188 2.75 30.1875 C2.73582031 29.44951172 2.72164062 28.71152344 2.70703125 27.95117188 C2.51648191 23.68778991 2.51648191 23.68778991 0.4375 20.08203125 C-2.86920738 18.61414993 -6.20106243 18.0393435 -9.75 17.5 C-18.36979352 16.06786827 -18.36979352 16.06786827 -22.375 14.3125 C-27.16230658 12.57916486 -33.85595138 10.7204359 -37.73046875 14.83984375 Z M-29 79 C-29.33773437 79.55429688 -29.67546875 80.10859375 -30.0234375 80.6796875 C-30.69246094 81.76636719 -30.69246094 81.76636719 -31.375 82.875 C-31.81585938 83.59429687 -32.25671875 84.31359375 -32.7109375 85.0546875 C-34 87 -34 87 -36 89 C-31.078 94.35629412 -27.08617651 97.11769221 -19.75 97.5 C-13.81013503 97.33748659 -8.78026678 95.55479721 -4 92 C-2.71094248 89.93625335 -2.71094248 89.93625335 -2 88 C-2.763125 87.2575 -3.52625 86.515 -4.3125 85.75 C-6.4393702 83.5736677 -8.2559956 81.47832204 -10 79 C-10.639375 79.33 -11.27875 79.66 -11.9375 80 C-17.03934682 81.66590916 -21.96065318 81.66590916 -27.0625 80 C-27.701875 79.67 -28.34125 79.34 -29 79 Z " fill="#C6A15A" transform="translate(147,105)"/>
</svg>
