<?xml version="1.0" encoding="UTF-8"?>
<svg version="1.1" xmlns="http://www.w3.org/2000/svg" width="256" height="256">
<path d="M0 0 C8.77032831 5.26219698 13.39691166 11.79544082 16.1875 21.5625 C17.13214289 30.5366075 14.80121244 37.71834177 11.4375 45.9375 C12.01757812 46.39898437 12.59765625 46.86046875 13.1953125 47.3359375 C21.59481311 54.3493819 27.82765684 62.89857545 29.4375 73.9375 C29.6573315 77.39676268 29.72835059 80.84673935 29.75 84.3125 C29.75563965 85.19341309 29.7612793 86.07432617 29.76708984 86.98193359 C29.67922565 94.7333426 29.67922565 94.7333426 27.4375 97.9375 C23.37120882 100.02633032 19.8860449 100.19545808 15.35571289 100.2121582 C14.66236343 100.21726913 13.96901398 100.22238007 13.25465393 100.22764587 C10.97306578 100.24149414 8.69178131 100.24058879 6.41015625 100.23828125 C4.81741728 100.24217072 3.22467935 100.24650591 1.63194275 100.25126648 C-1.70268113 100.25871837 -5.03719911 100.25844486 -8.37182617 100.25317383 C-12.63667606 100.24737961 -16.90109161 100.26431379 -21.16586971 100.2875185 C-24.45421364 100.3022783 -27.74245348 100.30312451 -31.03082466 100.30000877 C-32.60283837 100.30052083 -34.17485808 100.30573677 -35.74683952 100.31582069 C-37.94861644 100.32821224 -40.14955402 100.32137809 -42.35131836 100.30981445 C-44.22731972 100.31075859 -44.22731972 100.31075859 -46.14122009 100.3117218 C-49.93433922 99.89682799 -52.35283062 98.98268985 -55.5625 96.9375 C-59.21216729 85.98849812 -57.23889701 71.5730938 -52.34375 61.40625 C-48.84139247 54.94634612 -44.27989709 50.48600702 -38.5625 45.9375 C-38.85898438 45.19886719 -39.15546875 44.46023437 -39.4609375 43.69921875 C-39.82445313 42.78785156 -40.18796875 41.87648437 -40.5625 40.9375 C-40.84351562 40.24269531 -41.12453125 39.54789063 -41.4140625 38.83203125 C-44.40269665 30.78686962 -44.68174212 23.17648749 -41.58984375 15.09765625 C-37.79250492 7.11313773 -32.41033308 2.84115535 -24.5625 -1.0625 C-17.15178885 -3.53273705 -7.09785453 -3.34081116 0 0 Z M-24.5625 19.9375 C-26.90163951 23.7444888 -26.70862656 26.43564768 -26.10546875 30.75 C-25.12698289 34.69210132 -22.96390125 36.9226922 -19.75 39.25 C-15.28964796 40.65182493 -11.64287902 40.35303039 -7.3125 38.6875 C-2.91727409 35.89053805 -1.8461232 34.19354559 -0.6875 29.0625 C-0.31775977 24.91832826 -1.18717396 22.42131153 -3.5625 18.9375 C-5.83657123 16.31887252 -7.46570443 15.13374937 -10.8984375 14.51953125 C-17.25258531 14.16652304 -20.28888967 15.23652864 -24.5625 19.9375 Z M-32.5625 62.9375 C-32.5625 63.5975 -32.5625 64.2575 -32.5625 64.9375 C-33.2225 64.9375 -33.8825 64.9375 -34.5625 64.9375 C-35.41647011 66.42584791 -36.24464205 67.92900644 -37.0625 69.4375 C-37.5265625 70.2728125 -37.990625 71.108125 -38.46875 71.96875 C-40.02344048 75.6613206 -40.02344048 75.6613206 -39.5625 82.9375 C-22.4025 82.9375 -5.2425 82.9375 12.4375 82.9375 C12.6024819 76.86770393 12.6024819 76.86770393 11.0625 71.6875 C10.80726563 71.04296875 10.55203125 70.3984375 10.2890625 69.734375 C9.36398256 67.67021711 9.36398256 67.67021711 7.4375 64.9375 C6.7775 64.9375 6.1175 64.9375 5.4375 64.9375 C5.4375 64.2775 5.4375 63.6175 5.4375 62.9375 C-4.53840731 55.151426 -22.83291589 53.20791589 -32.5625 62.9375 Z " fill="#C6A15A" transform="translate(141.5625,10.0625)"/>
<path d="M0 0 C6.44941985 5.55984469 10.29412948 12.49857617 11.37890625 20.953125 C11.66502312 28.15219465 10.04661215 33.5519494 7 40 C6.67 40.99 6.34 41.98 6 43 C7.03125 43.66 8.0625 44.32 9.125 45 C16.99665332 50.66122946 21.99850197 59.57601866 24 69 C24.27094696 72.82988205 24.27700257 76.66154424 24.3125 80.5 C24.34150391 81.54542969 24.37050781 82.59085937 24.40039062 83.66796875 C24.40876953 84.67472656 24.41714844 85.68148437 24.42578125 86.71875 C24.44036377 87.63591797 24.45494629 88.55308594 24.4699707 89.49804688 C23.83044913 92.90262716 22.73767206 93.89352216 20 96 C17.37262151 96.38991172 15.16505534 96.53798473 12.54101562 96.50170898 C11.42323982 96.50981346 11.42323982 96.50981346 10.28288269 96.51808167 C7.82359909 96.53057264 5.3654854 96.51407658 2.90625 96.49609375 C1.19518981 96.49624873 -0.51587074 96.49773755 -2.22692871 96.50050354 C-5.81143733 96.50188769 -9.3955459 96.48932704 -12.97998047 96.46655273 C-17.57354654 96.43816787 -22.16644791 96.44090512 -26.76006317 96.45364285 C-30.29284335 96.46059945 -33.82547002 96.45281098 -37.35823059 96.44038582 C-39.05189933 96.43587113 -40.74558454 96.43553468 -42.43925476 96.43945122 C-44.80685171 96.44236331 -47.17353426 96.42585758 -49.54101562 96.40405273 C-50.24035721 96.40855438 -50.93969879 96.41305603 -51.66023254 96.41769409 C-54.67953014 96.37151641 -56.74401696 96.14246539 -59.40368652 94.6622467 C-63.6343253 90.25686802 -62.36998168 82.48145448 -62.27734375 76.73046875 C-61.82527939 65.50982653 -57.65367542 55.51487815 -49.61328125 47.671875 C-47.44764175 45.72721912 -45.25533032 43.83934717 -43 42 C-43.34933594 41.39414063 -43.69867188 40.78828125 -44.05859375 40.1640625 C-48.56032003 31.87476481 -50.2286757 24.41647951 -47.79296875 15.1640625 C-44.89568173 7.25718067 -39.39767851 0.80674335 -31.9375 -3.1484375 C-21.17307515 -7.87957584 -9.65968772 -6.62661171 0 0 Z M-29.375 16.0625 C-31.75684839 20.36814902 -31.89265847 24.19041773 -31 29 C-29.30543216 32.39608063 -26.9119018 34.43314212 -23.6875 36.4375 C-18.60380868 37.50152842 -14.5303884 36.96481008 -10.125 34.1875 C-6.9851265 30.95527728 -6.1349879 29.19239311 -5.625 24.6875 C-6.07310542 20.28112999 -7.15287175 17.39027272 -10 14 C-17.2931027 9.18965566 -22.90941041 10.44764589 -29.375 16.0625 Z M-40.5 62.9375 C-44.40468433 68.82761704 -45 72.77715075 -45 80 C-27.51 80 -10.02 80 8 80 C6.04792528 68.28755166 5.13419022 64.42208529 -3.12109375 57.296875 C-14.26530935 49.60481766 -32.23122172 52.65579717 -40.5 62.9375 Z " fill="#C6A15A" transform="translate(224,152)"/>
<path d="M0 0 C7.63984079 8.07202157 9.23629141 14.56284722 9 25.59765625 C8.48662604 31.39337806 6.28802721 35.80189174 3.703125 40.94921875 C4.21101563 41.28953125 4.71890625 41.62984375 5.2421875 41.98046875 C14.44088146 48.45745176 19.93373145 56.64127155 22.29296875 67.71875 C22.79415797 71.66621176 22.92534905 75.53628528 22.953125 79.51171875 C22.97375 80.25357422 22.994375 80.99542969 23.015625 81.75976562 C23.04811942 86.32116988 22.64114832 89.23390285 19.703125 92.94921875 C16.74027537 94.43064357 13.72086883 94.11385316 10.47119141 94.1262207 C9.35385368 94.1360775 9.35385368 94.1360775 8.21394348 94.14613342 C5.74419051 94.16587532 3.27449834 94.17753013 0.8046875 94.1875 C-0.03799305 94.19157553 -0.8806736 94.19565105 -1.74888992 94.19985008 C-6.20791632 94.22071331 -10.6669119 94.23501467 -15.12597656 94.24438477 C-19.73530634 94.2554578 -24.34415449 94.28986696 -28.95331383 94.32955647 C-32.49462798 94.35567824 -36.03582652 94.36407256 -39.57722855 94.36766624 C-41.27651858 94.37254269 -42.9758031 94.38418674 -44.67499924 94.40270424 C-47.05244087 94.42700527 -49.42862502 94.42614798 -51.80615234 94.41918945 C-52.50863602 94.43199951 -53.21111969 94.44480957 -53.93489075 94.45800781 C-57.31017413 94.42197797 -59.02368971 94.159614 -61.73170471 92.07402039 C-63.6638133 89.45108056 -63.82450227 87.96836962 -63.86328125 84.73046875 C-63.87665527 83.72113281 -63.8900293 82.71179688 -63.90380859 81.671875 C-63.88914551 80.60839844 -63.87448242 79.54492188 -63.859375 78.44921875 C-63.84986816 77.36511719 -63.84036133 76.28101563 -63.83056641 75.1640625 C-63.62007655 67.0754119 -62.69843772 60.88747156 -58.296875 53.94921875 C-57.82765625 53.18738281 -57.3584375 52.42554688 -56.875 51.640625 C-53.68054591 46.96057801 -50.0491218 43.9906567 -45.296875 40.94921875 C-45.565 40.28921875 -45.833125 39.62921875 -46.109375 38.94921875 C-46.50125 37.95921875 -46.893125 36.96921875 -47.296875 35.94921875 C-47.833125 34.79421875 -48.369375 33.63921875 -48.921875 32.44921875 C-51.52064572 25.39922024 -51.53746067 17.12026838 -48.734375 10.13671875 C-44.2099007 1.544947 -38.33816797 -3.55824166 -29.296875 -7.05078125 C-19.01768786 -10.11266678 -7.86454791 -7.02191777 0 0 Z M-32.234375 15.19921875 C-33.6471468 18.85580457 -33.9653934 22.11838299 -33.296875 25.94921875 C-31.48518613 29.64227683 -29.90200841 31.52287476 -26.546875 33.88671875 C-22.53307105 35.19892389 -19.27319623 35.26938902 -15.296875 33.94921875 C-12.3419265 32.11753361 -9.87854545 30.11255965 -8.296875 26.94921875 C-7.73042389 22.30617688 -7.87564186 18.82408758 -9.921875 14.57421875 C-13.11830315 11.04132448 -16.04102366 9.35411514 -20.734375 8.51171875 C-25.55298725 9.33440865 -29.10609771 11.56638061 -32.234375 15.19921875 Z M-41.171875 59.94921875 C-46.22381338 65.96455003 -46.45482269 69.52869564 -47.296875 77.94921875 C-29.806875 77.94921875 -12.316875 77.94921875 5.703125 77.94921875 C4.68952172 67.81318599 4.11138878 63.49605651 -3.296875 56.94921875 C-14.99858472 48.52398775 -31.36265771 49.26275438 -41.171875 59.94921875 Z " fill="#C6A15A" transform="translate(71.296875,154.05078125)"/>
<path d="M0 0 C1.96178014 0.48630043 3.91981908 0.98781155 5.875 1.5 C17.73666946 4.38973386 29.41057477 3.77222279 41.15625 0.6875 C45.38633657 -0.33515829 48.66618499 -0.55032572 53 0 C56.06862356 2.54471222 56.84823663 4.08941981 57.5 8 C56.85492811 11.87043136 55.88397796 13.33232039 53 16 C35.27838236 24.54435136 11.6861708 22.56744385 -6.65625 17.2265625 C-8.875 16.375 -8.875 16.375 -12 14 C-13.30219793 10.88757177 -13.54400668 8.32317123 -13 5 C-9.63562245 -0.3178871 -5.89220711 -0.92125714 0 0 Z " fill="#C6A15A" transform="translate(106,190)"/>
<path d="M0 0 C2.375 1.5625 2.375 1.5625 4 4 C5.10115674 9.70599403 3.98881951 12.44390957 0.8125 17.25 C0.17570312 18.17941406 -0.46109375 19.10882813 -1.1171875 20.06640625 C-7.7838238 30.45363418 -10.220309 41.88014994 -10.94726562 53.99609375 C-11.29376012 57.81782511 -11.69156309 59.67894292 -14.38671875 62.484375 C-17.62832913 64.36441211 -19.30784289 64.61535952 -23 64 C-25.65234375 62.484375 -25.65234375 62.484375 -28 60 C-28.49797658 57.01832655 -28.66780709 54.71803006 -28.5625 51.75 C-28.54445312 50.95223145 -28.52640625 50.15446289 -28.5078125 49.33251953 C-27.84204274 32.52516188 -21.31299908 13.7426638 -10 1 C-6.34529992 -1.27339611 -4.15482472 -1.21182388 0 0 Z " fill="#C5A15A" transform="translate(68,67)"/>
<path d="M0 0 C8.28841804 3.89279908 12.90617142 16.92387353 15.99609375 24.9375 C19.06255221 34.28383025 21.16992847 43.2054014 21.37109375 53.0625 C21.42716797 54.11630859 21.42716797 54.11630859 21.484375 55.19140625 C21.54937649 59.01204945 21.33118996 60.58447222 18.66015625 63.3984375 C15.3889024 65.2882821 13.71799241 65.55781644 9.99609375 64.9375 C7.40234375 63.5234375 7.40234375 63.5234375 4.99609375 60.9375 C4.05354855 57.69214552 3.79823726 54.42014377 3.49609375 51.0625 C1.9638062 38.01906971 -1.31652433 22.62488192 -11.00390625 12.9375 C-11.59649884 5.70787037 -11.59649884 5.70787037 -9.12890625 2.5 C-6.03358849 0.22403106 -3.91492821 -0.65113151 0 0 Z " fill="#C5A05A" transform="translate(195.00390625,66.0625)"/>
</svg>
