<?xml version="1.0" encoding="UTF-8"?>
<svg version="1.1" xmlns="http://www.w3.org/2000/svg" width="256" height="256">
<path d="M0 0 C4.37966095 1.562933 6.81574663 3.7147236 10.02734375 6.99707031 C10.61436066 7.57834686 11.20137756 8.15962341 11.80618286 8.7585144 C13.03865499 9.98691822 14.26364118 11.22287359 15.48144531 12.46582031 C17.34225771 14.35876605 19.23291743 16.21755896 21.12890625 18.07519531 C22.32614717 19.27640134 23.52152538 20.47946741 24.71484375 21.68457031 C25.27831512 22.2358963 25.8417865 22.78722229 26.42233276 23.35525513 C30.05162027 27.11708132 31.34173386 29.81709465 31.47265625 35.23925781 C30.47265625 37.23925781 30.47265625 37.23925781 28.47265625 38.23925781 C21.47265625 37.23925781 21.47265625 37.23925781 5.47265625 21.23925781 C5.14265625 41.03925781 4.81265625 60.83925781 4.47265625 81.23925781 C7.77265625 81.56925781 11.07265625 81.89925781 14.47265625 82.23925781 C17.25538151 83.02453445 19.80349934 83.8173518 22.47265625 84.86425781 C23.16125732 85.13149658 23.8498584 85.39873535 24.55932617 85.67407227 C39.55469503 91.7443383 51.62890294 103.61935974 58.47265625 118.23925781 C65.48483288 136.08063689 65.56856675 154.58313256 58.1875 172.32910156 C54.69018131 179.27502976 49.8468541 184.68369272 44.47265625 190.23925781 C43.94285156 190.86574219 43.41304688 191.49222656 42.8671875 192.13769531 C33.13674058 203.19388435 16.84618915 208.29404595 2.60546875 209.47753906 C-13.88783651 209.88451672 -30.43733582 204.76096535 -42.96484375 193.80175781 C-44.50439672 192.29987742 -46.02692156 190.78023195 -47.52734375 189.23925781 C-48.14996094 188.64886719 -48.77257812 188.05847656 -49.4140625 187.45019531 C-60.35639339 176.28655885 -65.42176714 160.02529067 -65.90234375 144.73925781 C-65.36232105 127.56238188 -59.23912955 111.93830115 -47.16015625 99.63769531 C-36.04661323 89.51348846 -21.99205898 81.23925781 -6.52734375 81.23925781 C-6.85734375 61.43925781 -7.18734375 41.63925781 -7.52734375 21.23925781 C-12.80734375 26.51925781 -18.08734375 31.79925781 -23.52734375 37.23925781 C-29.52734375 38.23925781 -29.52734375 38.23925781 -31.96484375 36.61425781 C-33.52734375 34.23925781 -33.52734375 34.23925781 -33.51220703 32.02001953 C-32.05893279 27.91669936 -29.36432582 25.42659349 -26.33203125 22.37207031 C-25.70636261 21.73308807 -25.08069397 21.09410583 -24.43606567 20.4357605 C-23.1114468 19.09092347 -21.78137696 17.75143667 -20.44628906 16.41699219 C-18.40897225 14.37091481 -16.40577524 12.29502009 -14.40234375 10.21582031 C-13.11004132 8.91178334 -11.81583136 7.60963339 -10.51953125 6.30957031 C-9.9244577 5.6857547 -9.32938416 5.06193909 -8.71627808 4.41921997 C-5.68828431 1.45582595 -4.34148571 0.29448062 0 0 Z M-35.3203125 104.15722656 C-36.04863281 104.84429687 -36.77695313 105.53136719 -37.52734375 106.23925781 C-38.16285156 106.83351563 -38.79835938 107.42777344 -39.453125 108.04003906 C-50.25846504 119.2287171 -54.02994627 133.39820917 -53.7734375 148.53222656 C-52.83037228 162.73808195 -46.00566524 175.71801135 -35.52734375 185.23925781 C-22.70560661 195.13573937 -8.51878879 198.60104119 7.47265625 197.23925781 C21.25039443 194.69803055 34.09465228 187.40578445 42.15234375 175.82519531 C50.85987921 161.83248908 54.11875406 147.55283101 51.07421875 131.08398438 C49.07658814 123.73500871 45.03327126 117.25877924 40.47265625 111.23925781 C39.73015625 110.20800781 38.98765625 109.17675781 38.22265625 108.11425781 C18.87187813 87.88389887 -14.0538649 85.63926977 -35.3203125 104.15722656 Z " fill="#C6A15A" transform="translate(129.52734375,4.7607421875)"/>
<path d="M0 0 C0.65073486 -0.00524185 1.30146973 -0.0104837 1.97192383 -0.0158844 C3.34357276 -0.02228907 4.71527674 -0.02098767 6.08691406 -0.01245117 C8.18133521 -0.00393133 10.27303497 -0.03273099 12.3671875 -0.06445312 C13.70312419 -0.06606517 15.03906568 -0.06548753 16.375 -0.0625 C18.19064453 -0.06527954 18.19064453 -0.06527954 20.04296875 -0.06811523 C23.9527736 0.55569292 24.86431647 1.25114553 27.1875 4.43359375 C27.57495513 7.45943944 27.72141898 10.12159657 27.68579102 13.14599609 C27.69130981 14.02451736 27.69682861 14.90303864 27.70251465 15.80818176 C27.71183423 17.71408224 27.71194016 19.62004499 27.70392036 21.52595139 C27.69130279 24.54427966 27.70256929 27.56169174 27.71995544 30.57998657 C27.74668316 35.90093359 27.75225027 41.22165668 27.75085449 46.54266357 C27.74862802 55.05241172 27.76276318 63.56188213 27.80644035 72.07152176 C27.8162732 75.04183805 27.80756313 78.01171787 27.79774475 80.98202515 C27.80389043 82.80882044 27.81080265 84.63561337 27.81860352 86.46240234 C27.81088425 87.28546371 27.80316498 88.10852509 27.79521179 88.95652771 C27.83873543 93.90404948 28.66414906 97.05249988 31.1875 101.43359375 C31.1875 102.09359375 31.1875 102.75359375 31.1875 103.43359375 C36.01562033 105.39093983 39.76403992 106.55958135 44.99919128 106.58076477 C46.81811386 106.59149773 46.81811386 106.59149773 48.67378235 106.60244751 C50.01974462 106.60528775 51.36570716 106.60799948 52.71166992 106.6105957 C54.12768724 106.61686155 55.54370292 106.62350846 56.9597168 106.63050842 C61.61245582 106.65153982 66.26519514 106.66191111 70.91796875 106.671875 C72.52098419 106.67592314 74.12399945 106.68004008 75.72701454 106.68422508 C83.2597863 106.70327608 90.79254828 106.71750634 98.3253395 106.72583705 C107.01323233 106.73560438 115.70087004 106.76191096 124.38867301 106.80233794 C131.10812569 106.83252957 137.82750537 106.84730888 144.54702455 106.85061806 C148.5581137 106.85296542 152.56893028 106.86188438 156.57994652 106.88707924 C160.35653327 106.91041804 164.13266912 106.91457017 167.90930939 106.90431786 C169.29115362 106.90382376 170.67302048 106.91010694 172.05479622 106.9238739 C179.85698855 106.99722399 185.56919203 106.7683381 192.1875 102.43359375 C196.79267097 96.78854546 196.3361346 89.66133352 196.34521484 82.72192383 C196.35029556 81.86755234 196.35537628 81.01318085 196.36061096 80.13291931 C196.37127275 78.28651246 196.37990919 76.44009302 196.38673019 74.59366798 C196.39856005 71.67286631 196.41801963 68.75220978 196.43984985 65.83146667 C196.50135567 57.53035269 196.55562803 49.22925784 196.58886719 40.92797852 C196.60976882 35.84404696 196.64502429 30.76038743 196.68962479 25.67661095 C196.70380863 23.73931761 196.71251258 21.80197623 196.71567917 19.86463356 C196.72056812 17.16182386 196.7436696 14.45974261 196.77099609 11.75708008 C196.76648689 10.55310074 196.76648689 10.55310074 196.7618866 9.32479858 C196.84293081 3.94840007 196.84293081 3.94840007 198.52409363 1.43664551 C201.24167024 -0.20208213 203.76838445 0.06262766 206.90234375 0.0703125 C207.55449356 0.069814 208.20664337 0.06931549 208.8785553 0.06880188 C210.25622609 0.07113948 211.63390139 0.08084971 213.01147461 0.09741211 C215.11416069 0.1209723 217.2155751 0.11797549 219.31835938 0.11132812 C231.01227185 0.15999124 231.01227185 0.15999124 234.1875 2.43359375 C235.0625 5.37109375 235.0625 5.37109375 235.1875 8.43359375 C233.1875 11.43359375 233.1875 11.43359375 230.1875 12.43359375 C228.48733156 12.51537489 226.78413703 12.54108876 225.08203125 12.53125 C224.09912109 12.52802734 223.11621094 12.52480469 222.10351562 12.52148438 C221.07935547 12.51310547 220.05519531 12.50472656 219 12.49609375 C217.44635742 12.48932617 217.44635742 12.48932617 215.86132812 12.48242188 C213.30332734 12.47063385 210.74544267 12.4541789 208.1875 12.43359375 C208.19638245 13.47627411 208.20526489 14.51895447 208.2144165 15.5932312 C208.29572591 25.44987146 208.35557237 35.3064431 208.39474869 45.16334343 C208.41556721 50.23013227 208.4437795 55.29664898 208.48925781 60.36328125 C208.53292084 65.25866472 208.55668019 70.15378747 208.56700897 75.04935074 C208.57436376 76.91115545 208.58872553 78.77294691 208.61042023 80.63463974 C208.85680945 102.66697269 208.85680945 102.66697269 200.75 111.37109375 C194.73840834 116.83033831 189.99625663 118.54991057 181.95184326 118.58076477 C180.67054031 118.58792007 179.38923737 118.59507538 178.06910706 118.60244751 C176.65121484 118.60528758 175.23332237 118.60799934 173.81542969 118.6105957 C172.32044823 118.61686303 170.82546833 118.62351007 169.33049011 118.63050842 C164.42346271 118.65151847 159.51643511 118.66190764 154.609375 118.671875 C152.91813389 118.67592364 151.22689294 118.68004059 149.53565216 118.68422508 C141.58961721 118.70326969 133.64359151 118.7175025 125.69753814 118.72583705 C116.53366714 118.73560846 107.37003774 118.76192843 98.20625186 118.80233794 C91.11735544 118.83252226 84.02852819 118.8473081 76.93956876 118.85061806 C72.70828856 118.85296581 68.4772667 118.86189034 64.2460556 118.88707924 C60.26344769 118.91040583 56.28126738 118.91457498 52.29860878 118.90431786 C50.8409743 118.9038235 49.38331844 118.91011428 47.92574883 118.9238739 C37.47826964 119.016942 29.95932619 117.99537059 22.1875 110.43359375 C16.43385506 102.94047476 14.87021244 95.25944903 14.96044922 85.99804688 C14.96015717 85.19708588 14.95986511 84.39612488 14.95956421 83.57089233 C14.96094545 80.95209504 14.97644914 78.33359067 14.9921875 75.71484375 C14.99592193 73.88781896 14.99876687 72.06079216 15.00076294 70.23376465 C15.00836556 65.44651674 15.0279848 60.65939196 15.0501709 55.87219238 C15.07070226 50.97861394 15.07978019 46.08501543 15.08984375 41.19140625 C15.11123411 31.60541493 15.14532899 22.01951461 15.1875 12.43359375 C14.54200195 12.4493042 13.89650391 12.46501465 13.23144531 12.48120117 C10.30021971 12.54365177 7.36913421 12.58261605 4.4375 12.62109375 C3.42171875 12.64623047 2.4059375 12.67136719 1.359375 12.69726562 C0.3796875 12.70693359 -0.6 12.71660156 -1.609375 12.7265625 C-2.96047363 12.75012817 -2.96047363 12.75012817 -4.33886719 12.77416992 C-7.32393791 12.36317765 -8.67076126 11.52905279 -10.8125 9.43359375 C-11.3125 6.43359375 -11.3125 6.43359375 -10.8125 3.43359375 C-7.52293911 0.03147945 -4.59030601 0.03696932 0 0 Z " fill="#C5A05B" transform="translate(16.8125,121.56640625)"/>
<path d="M0 0 C0.83920486 0.00565979 1.67840973 0.01131958 2.54304504 0.01715088 C5.22328758 0.03954094 7.90219288 0.08974047 10.58203125 0.140625 C12.39906923 0.16068668 14.21612817 0.17893803 16.03320312 0.1953125 C20.48749437 0.23941414 24.9407861 0.30845841 29.39453125 0.390625 C30.01953125 3.765625 30.01953125 3.765625 30.39453125 7.390625 C28.39453125 9.390625 28.39453125 9.390625 25.41357422 9.61767578 C24.16721191 9.60720215 22.92084961 9.59672852 21.63671875 9.5859375 C20.9736673 9.5831076 20.31061584 9.58027771 19.62747192 9.57736206 C17.50797542 9.56615935 15.38890021 9.54105551 13.26953125 9.515625 C11.83333943 9.50559528 10.397141 9.49646941 8.9609375 9.48828125 C5.43850887 9.46792039 1.91699208 9.4287744 -1.60546875 9.390625 C-1.93546875 15.330625 -2.26546875 21.270625 -2.60546875 27.390625 C-0.29546875 26.070625 2.01453125 24.750625 4.39453125 23.390625 C11.89560768 22.05279464 18.70645755 23.03274475 25.30078125 26.84375 C30.27032778 30.51528065 32.96931273 35.18649417 34.171875 41.22265625 C34.88142746 48.13145653 33.94119321 53.84809337 29.91015625 59.5703125 C24.61464378 65.93038675 19.80271176 68.87319751 11.4140625 69.67578125 C3.62744911 70.03179288 -2.20692125 68.97803801 -8.60546875 64.390625 C-12.22966775 60.96730539 -14.52227576 57.94356085 -14.79296875 52.890625 C-14.60546875 49.390625 -14.60546875 49.390625 -12.60546875 47.390625 C-9.85546875 46.703125 -9.85546875 46.703125 -6.60546875 47.390625 C-5.1953125 49.296875 -5.1953125 49.296875 -3.79296875 51.703125 C-1.10901565 56.14601341 1.04954399 57.89927489 6.0859375 59.15625 C11.03411905 59.65860346 14.88023827 58.59429378 18.83203125 55.453125 C22.09973946 51.13975016 21.72060192 46.55487941 21.39453125 41.390625 C20.95815471 37.98936794 20.95815471 37.98936794 19.39453125 35.390625 C14.83367599 32.94333681 9.46829178 32.52500031 4.39453125 33.390625 C1.47626895 34.75349402 -1.0308777 36.46841901 -3.60546875 38.390625 C-6.60546875 40.390625 -6.60546875 40.390625 -9.73046875 40.078125 C-12.60546875 39.390625 -12.60546875 39.390625 -13.60546875 38.390625 C-14.06398408 29.60419164 -13.73784138 20.82177947 -12.79296875 12.078125 C-12.72295654 11.36785156 -12.65294434 10.65757813 -12.58081055 9.92578125 C-11.5115566 1.09031097 -8.47270576 -0.21443665 0 0 Z " fill="#C6A15A" transform="translate(119.60546875,115.609375)"/>
</svg>
