<?xml version="1.0" encoding="UTF-8"?>
<svg version="1.1" xmlns="http://www.w3.org/2000/svg" width="50" height="50">
<path d="M0 0 C3.38682511 1.94575231 4.70212782 3.63285067 6.17578125 7.25 C6.46786557 10.61400563 6.41522749 13.88445005 6.17578125 17.25 C7.16578125 17.25 8.15578125 17.25 9.17578125 17.25 C9.17578125 20.55 9.17578125 23.85 9.17578125 27.25 C8.18578125 27.25 7.19578125 27.25 6.17578125 27.25 C6.07265625 28.36375 5.96953125 29.4775 5.86328125 30.625 C5.63640625 31.82125 5.40953125 33.0175 5.17578125 34.25 C2.08689603 36.30925681 1.46642198 36.4890374 -2.01171875 36.375 C-3.26984375 36.33375 -4.52796875 36.2925 -5.82421875 36.25 C-4.17421875 36.58 -2.52421875 36.91 -0.82421875 37.25 C-5.19148274 42.92744319 -5.19148274 42.92744319 -8.7421875 43.62890625 C-12.3683802 43.92224714 -14.82566472 44.01127386 -17.796875 41.74609375 C-21.32207194 37.78702641 -24.18584398 33.3732103 -26.87890625 28.81640625 C-27.73038996 27.26381272 -27.73038996 27.26381272 -28.82421875 26.25 C-28.97229858 23.18699639 -28.77043699 20.12442105 -28.63671875 17.0625 C-28.61802734 16.21107422 -28.59933594 15.35964844 -28.58007812 14.48242188 C-28.336633 8.96006131 -27.47326985 5.63983591 -23.82421875 1.25 C-16.7757007 -4.94415222 -8.04092979 -3.60153621 0 0 Z M-23.63671875 6.25 C-26.15380444 10.48930221 -25.91789862 14.37864698 -25.82421875 19.25 C-25.16421875 19.25 -24.50421875 19.25 -23.82421875 19.25 C-23.49421875 17.27 -23.16421875 15.29 -22.82421875 13.25 C-22.23253906 13.14042969 -21.64085937 13.03085937 -21.03125 12.91796875 C-16.35454424 11.97957591 -12.85387678 10.89806099 -8.82421875 8.25 C-6.51171875 7.5625 -6.51171875 7.5625 -4.82421875 7.25 C-4.49421875 8.24 -4.16421875 9.23 -3.82421875 10.25 C-1.00911882 12.5273501 -1.00911882 12.5273501 2.17578125 12.25 C2.17578125 14.56 2.17578125 16.87 2.17578125 19.25 C4.38277306 17.48586003 4.38277306 17.48586003 4.29296875 15.26171875 C3.76305888 10.17629334 3.24908909 6.71231167 -0.82421875 3.25 C-9.60208201 -0.87192438 -16.69797034 -1.40654997 -23.63671875 6.25 Z M-13.97265625 13.515625 C-16.53521154 14.53199714 -19.09833321 14.91757493 -21.82421875 15.25 C-21.82421875 17.89 -21.82421875 20.53 -21.82421875 23.25 C-23.14421875 23.58 -24.46421875 23.91 -25.82421875 24.25 C-24.83421875 24.58 -23.84421875 24.91 -22.82421875 25.25 C-22.71980469 25.97703125 -22.61539062 26.7040625 -22.5078125 27.453125 C-21.76197973 30.50464651 -20.65714671 32.42010987 -18.88671875 35 C-18.36207031 35.77859375 -17.83742188 36.5571875 -17.296875 37.359375 C-15.95245448 39.36538653 -15.95245448 39.36538653 -13.82421875 40.25 C-11.82461863 40.289992 -9.82374633 40.29346799 -7.82421875 40.25 C-7.49421875 39.59 -7.16421875 38.93 -6.82421875 38.25 C-9.13421875 38.25 -11.44421875 38.25 -13.82421875 38.25 C-13.82421875 36.27 -13.82421875 34.29 -13.82421875 32.25 C-11.18421875 32.25 -8.54421875 32.25 -5.82421875 32.25 C-5.82421875 32.91 -5.82421875 33.57 -5.82421875 34.25 C-4.50421875 34.25 -3.18421875 34.25 -1.82421875 34.25 C-0.83421875 31.28 0.15578125 28.31 1.17578125 25.25 C1.83578125 25.25 2.49578125 25.25 3.17578125 25.25 C3.17578125 24.59 3.17578125 23.93 3.17578125 23.25 C2.18578125 23.25 1.19578125 23.25 0.17578125 23.25 C0.29953125 22.0125 0.42328125 20.775 0.55078125 19.5 C0.63251491 17.31050846 0.63251491 17.31050846 0.17578125 15.25 C-5.08550845 10.57329805 -7.79335 10.72836346 -13.97265625 13.515625 Z M5.17578125 19.25 C5.17578125 21.23 5.17578125 23.21 5.17578125 25.25 C5.83578125 24.92 6.49578125 24.59 7.17578125 24.25 C6.84578125 22.6 6.51578125 20.95 6.17578125 19.25 C5.84578125 19.25 5.51578125 19.25 5.17578125 19.25 Z M-10.82421875 34.25 C-10.82421875 34.91 -10.82421875 35.57 -10.82421875 36.25 C-10.16421875 36.25 -9.50421875 36.25 -8.82421875 36.25 C-8.82421875 35.59 -8.82421875 34.93 -8.82421875 34.25 C-9.48421875 34.25 -10.14421875 34.25 -10.82421875 34.25 Z " fill="#F3C61D" transform="translate(35.82421875,4.75)"/>
</svg>
