<svg width="1200" height="630" viewBox="0 0 1200 630" fill="none" xmlns="http://www.w3.org/2000/svg">
  <defs>
    <linearGradient id="bgGradient" x1="0" y1="0" x2="1" y2="1">
      <stop offset="0" stop-color="#050509"/>
      <stop offset="0.5" stop-color="#0F0F10"/>
      <stop offset="1" stop-color="#020617"/>
    </linearGradient>
    <radialGradient id="accentGlow" cx="0.5" cy="0" r="1">
      <stop offset="0" stop-color="#C6A15B" stop-opacity="0.5"/>
      <stop offset="1" stop-color="#C6A15B" stop-opacity="0"/>
    </radialGradient>
    <linearGradient id="goldAccent" x1="0" y1="0" x2="1" y2="1">
      <stop offset="0" stop-color="#FACC15"/>
      <stop offset="1" stop-color="#C6A15B"/>
    </linearGradient>
    <linearGradient id="greenAccent" x1="0" y1="0" x2="1" y2="1">
      <stop offset="0" stop-color="#16C784"/>
      <stop offset="1" stop-color="#22C55E"/>
    </linearGradient>
  </defs>
  <rect width="1200" height="630" fill="url(#bgGradient)"/>
  <circle cx="900" cy="80" r="260" fill="url(#accentGlow)"/>
  <circle cx="200" cy="550" r="260" fill="url(#accentGlow)"/>
  <rect x="80" y="80" width="480" height="220" rx="24" fill="#0B0B0D" stroke="#26272B" stroke-opacity="0.9"/>
  <text x="120" y="150" fill="#F5F5F7" font-family="Inter, system-ui, -apple-system, BlinkMacSystemFont" font-size="32" font-weight="600" letter-spacing="0.18em">
    CRYPTO LEVELS
  </text>
  <text x="120" y="190" fill="#9CA3AF" font-family="Inter, system-ui, -apple-system, BlinkMacSystemFont" font-size="18">
    Custodial crypto growth, powered by levels &amp; multipliers.
  </text>
  <rect x="120" y="220" width="200" height="8" rx="4" fill="#111827"/>
  <rect x="120" y="220" width="148" height="8" rx="4" fill="url(#goldAccent)"/>
  <text x="120" y="255" fill="#9CA3AF" font-family="Inter, system-ui, -apple-system, BlinkMacSystemFont" font-size="13">
    Deposit progression · XP · streaks · time-limited boosts
  </text>
  <rect x="680" y="130" width="420" height="320" rx="28" fill="#0B0B0D" stroke="#26272B" stroke-opacity="0.9"/>
  <text x="720" y="190" fill="#9CA3AF" font-family="Inter, system-ui, -apple-system, BlinkMacSystemFont" font-size="12" letter-spacing="0.16em">
    PORTFOLIO SNAPSHOT
  </text>
  <text x="720" y="230" fill="#F5F5F7" font-family="Inter, system-ui, -apple-system, BlinkMacSystemFont" font-size="34" font-weight="600">
    $48,230.12
  </text>
  <g>
    <rect x="720" y="250" width="180" height="8" rx="4" fill="#111827"/>
    <rect x="720" y="250" width="128" height="8" rx="4" fill="url(#greenAccent)"/>
  </g>
  <text x="720" y="278" fill="#9CA3AF" font-family="Inter, system-ui, -apple-system, BlinkMacSystemFont" font-size="12">
    Level 4 · Multiplier x1.62 · Streak 9 days
  </text>
  <g>
    <rect x="720" y="304" width="180" height="80" rx="18" fill="#020617" stroke="#111827"/>
    <text x="740" y="334" fill="#9CA3AF" font-family="Inter, system-ui, -apple-system, BlinkMacSystemFont" font-size="11">
      Pending earnings
    </text>
    <text x="740" y="360" fill="#16C784" font-family="Inter, system-ui, -apple-system, BlinkMacSystemFont" font-size="20" font-weight="600">
      0.4821 BTC
    </text>
  </g>
  <g>
    <rect x="920" y="304" width="160" height="80" rx="18" fill="#020617" stroke="#111827"/>
    <text x="940" y="334" fill="#9CA3AF" font-family="Inter, system-ui, -apple-system, BlinkMacSystemFont" font-size="11">
      Active bonus
    </text>
    <text x="940" y="360" fill="#F5F5F7" font-family="Inter, system-ui, -apple-system, BlinkMacSystemFont" font-size="14">
      Weekend BTC boost x1.15
    </text>
  </g>
  <g>
    <polyline
      points="700,400 740,390 780,370 820,380 860,350 900,340 940,320 980,330 1020,300 1040,292"
      fill="none"
      stroke="#22C55E"
      stroke-width="3"
      stroke-linecap="round"
      stroke-linejoin="round"
    />
    <circle cx="1040" cy="292" r="6" fill="#22C55E"/>
  </g>
  <g>
    <rect x="80" y="340" width="420" height="160" rx="24" fill="#020617" stroke="#111827"/>
    <text x="112" y="382" fill="#9CA3AF" font-family="Inter, system-ui, -apple-system, BlinkMacSystemFont" font-size="11" letter-spacing="0.16em">
      CUSTODIAL DEPOSIT FLOWS
    </text>
    <text x="112" y="412" fill="#F5F5F7" font-family="Inter, system-ui, -apple-system, BlinkMacSystemFont" font-size="18">
      BTC · ETH · SOL · USDT (ERC20 / TRC20)
    </text>
    <text x="112" y="438" fill="#9CA3AF" font-family="Inter, system-ui, -apple-system, BlinkMacSystemFont" font-size="13">
      On-chain verified deposits, admin-reviewed withdrawals, level-gated access.
    </text>
  </g>
  <rect x="80" y="540" width="260" height="48" rx="999" fill="url(#goldAccent)"/>
  <text x="110" y="570" fill="#0F0F10" font-family="Inter, system-ui, -apple-system, BlinkMacSystemFont" font-size="16" font-weight="600">
    View dashboard
  </text>
  <text x="292" y="570" fill="#0F0F10" font-family="Inter, system-ui, -apple-system, BlinkMacSystemFont" font-size="18">
    ↗
  </text>
  <text x="360" y="568" fill="#6B7280" font-family="Inter, system-ui, -apple-system, BlinkMacSystemFont" font-size="13">
    cryptolevels.app
  </text>
</svg>

